<svg width="359" height="321" viewBox="0 0 359 321" fill="none" xmlns="http://www.w3.org/2000/svg">
<path d="M118.389 161.526C119.551 160.692 120.08 159.281 120.994 158.225C124.562 153.755 128.311 149.44 132.084 145.151C140.743 135.546 150.684 127.042 158.082 116.35C171.696 97.7436 179.212 74.7234 178.752 51.6476C178.826 53.5001 179.144 55.334 179.293 57.1804C179.728 68.6686 181.829 80.1506 186.013 90.8742C190.34 102.213 196.668 112.75 204.408 122.088C210.575 129.939 218.122 136.529 224.724 143.989C229.827 149.745 234.944 155.508 239.475 161.731C240.258 149.229 240.178 136.517 237.144 124.289C234.502 112.682 229.56 101.648 222.927 91.7819C215.629 80.7412 206.969 70.6704 199.832 59.5177C193.666 50.0313 188.419 39.8671 184.894 29.0937C181.624 19.7005 179.852 9.85948 178.746 0C177.235 20.4278 169.719 40.153 158.728 57.3355C147.799 74.9097 132.855 90.1219 125.357 109.704C120.005 123.666 117.288 138.692 118.065 153.655C118.097 156.279 118.631 158.896 118.389 161.526Z" fill="#C4AB69"/>
<path d="M286.006 274.518C275.923 276.538 266.343 280.362 256.863 284.247C247.656 287.902 238.064 290.799 228.167 291.732C215.162 293.168 201.517 291.924 189.612 286.205C211.544 292.229 235.18 288.493 255.707 279.367C267.195 274.406 278.124 268.227 289.799 263.676C299.13 260.033 308.318 255.8 316.449 249.882C325.681 243.286 333.675 234.918 339.637 225.252C346.494 213.975 350.174 200.932 351.194 187.821C352.064 175.357 351.225 162.849 351.71 150.373C349.117 157.174 346.587 164.124 342.254 170.061C334.838 180.449 324.033 187.579 314.404 195.711C306.173 202.369 298.956 210.301 293.323 219.271C287.859 228.174 282.513 237.237 275.6 245.114C261.376 262.048 241.943 275.059 220.173 279.746C215.032 280.772 209.766 281.723 204.513 281.375C220.111 279.603 234.378 272.1 247.066 263.204C265.299 250.05 279.914 232.059 289.525 211.774C295.549 198.869 298.974 184.67 298.875 170.397C298.912 164.199 298.589 157.976 299.36 151.809C300.671 139.68 304.638 127.713 311.662 117.674C316.785 110.444 323.748 104.725 331.22 100.062C331.618 100.211 332.022 100.361 332.432 100.503C332.463 100.218 332.525 99.6457 332.556 99.3598C333.246 99.0551 333.924 98.738 334.602 98.3962C323.698 101.194 313.266 105.533 302.648 109.213C294.61 112.116 286.759 115.659 279.697 120.521C268.731 127.807 259.462 137.536 252.387 148.62C249.584 153.176 247.022 158.1 246.469 163.502C245.984 167.754 247.184 171.976 248.968 175.799C253.724 186.298 258.206 197.234 258.939 208.871C260.108 222.249 256.875 236.15 249.104 247.19C241.694 257.939 230.828 265.902 219.066 271.335C209.927 275.587 199.77 277.285 189.73 276.912C195.107 275.351 200.634 274.114 205.7 271.628C218.836 265.305 230.318 255.166 237.374 242.329C242.832 232.612 245.58 221.367 245.076 210.22C244.709 195.878 240.239 181.798 233.016 169.458C227.794 160.083 221.043 151.672 213.819 143.784C207.012 136.448 200.217 129.044 194.523 120.795C187.852 110.792 182.388 99.9194 178.944 88.375C178.279 92.4841 176.395 96.2452 174.822 100.062C169.122 113.546 160.916 125.904 150.957 136.615C142.714 145.468 134.421 154.395 127.98 164.69C121.136 175.463 116.107 187.492 114.105 200.136C112.078 211.525 112.744 223.542 117.008 234.365C125.438 255.744 145.294 272.18 167.841 276.544C164.577 277.178 161.208 276.731 157.926 276.482C147.998 275.581 138.549 271.764 130.007 266.76C121.329 261.426 113.434 254.544 107.82 245.984C99.7198 233.756 97.202 218.326 99.5147 203.966C101.044 193.87 105.066 184.421 109.256 175.189C111.519 170.521 112.464 165.087 111.034 160.027C109.007 153.133 104.849 147.121 100.522 141.483C90.6313 128.515 77.2471 118.314 62.1782 112.116C49.5337 107.012 36.6776 102.418 23.6477 98.3896C33.1716 103.953 42.4839 110.742 48.1908 120.409C55.949 133.302 59.5733 148.582 58.9581 163.589C58.7964 170.204 58.8151 176.856 59.6978 183.433C61.5442 197.072 66.6294 210.089 73.4117 222.013C85.1734 242.229 102.083 259.679 122.622 271.024C131.985 276.321 142.304 279.709 152.847 281.717C136.218 281.132 120.08 275.245 106.036 266.492C94.6724 259.362 84.9871 249.757 76.9614 239.052C70.9064 231.176 66.3372 222.305 60.6802 214.161C55.0415 206.067 47.7744 199.297 40.1593 193.106C31.5743 186.019 22.4668 179.23 16.0016 170.023C11.7804 164.031 9.41216 157.018 6.47768 150.373C7.13662 163.079 6.0797 175.823 7.14911 188.505C8.36742 202.362 12.6507 216.088 20.44 227.676C26.7747 237.119 35.0429 245.232 44.4485 251.597C52.4866 257.248 61.6372 260.953 70.6948 264.621C77.7506 267.499 84.6571 270.726 91.4707 274.139C102.953 279.815 114.876 284.918 127.527 287.305C141.085 289.867 155.265 289.836 168.625 286.168C158.74 290.855 147.656 292.409 136.802 292.229C125.09 292.005 113.695 288.748 102.828 284.576C93.1738 280.797 83.5072 276.874 73.3368 274.667C48.9618 269.122 23.0574 272.212 0 281.512C10.0833 280.58 20.3592 282.451 29.7214 286.237C40.8616 290.644 50.2985 298.179 60.0955 304.887C69.9116 311.75 81.0081 316.99 92.8198 319.253C106.689 322.019 121.043 321.274 134.856 318.55C149.31 315.74 163.074 308.287 172.417 296.78C175.177 293.317 177.801 289.588 178.851 285.217C181.164 291.39 184.968 296.948 189.755 301.48C198.689 310.338 210.388 316.138 222.666 318.663C243.398 322.79 265.828 321.895 285.024 312.402C300.361 305.135 312.383 292.248 328.348 286.144C337.779 282.227 348.111 280.748 358.268 281.456C335.528 272.311 310.065 269.228 286.006 274.518ZM184.95 260.388C182.942 258.815 183.078 255.993 183.122 253.699C183.346 250.292 183.421 246.873 183.613 243.466C183.974 243.292 184.695 242.944 185.056 242.77C187.728 240.631 188.978 237.113 188.984 233.762C188.891 230.312 187.53 227.073 186.038 224.02C183.818 219.575 180.921 215.249 180.436 210.176C179.87 206.34 180.617 202.443 182.09 198.887C177.042 206.359 172.554 214.385 170.309 223.181C168.861 229.565 168.786 237.442 174.139 242.104L174.599 242.533C174.17 246.661 174.698 250.789 174.686 254.917C174.63 256.937 174.164 259.361 172.268 260.468C169.502 261.164 166.772 259.852 164.46 258.454C158.125 254.276 153.991 247.32 152.338 240.003C150.28 231.194 150.727 221.534 154.998 213.433C159.99 203.599 167.773 195.455 172.417 185.415C175.749 178.689 177.856 171.067 176.632 163.533C175.96 158.709 173.828 154.239 171.404 150.074C170.117 147.892 168.246 146.089 167.245 143.746C172.641 147.873 178.509 151.392 183.595 155.936C187.511 159.442 190.414 164.067 191.813 169.14C193.392 174.835 192.752 180.803 193.187 186.627C193.448 191.365 194.48 196.046 196.202 200.466C198.421 206.688 202.4 212.115 204.526 218.376C207.286 225.916 207.012 234.321 204.774 241.955C202.437 249.645 197.364 257.024 189.705 260.139C188.201 260.593 186.404 261.351 184.95 260.388Z" fill="#C4AB69"/>
</svg>
