<svg xmlns="http://www.w3.org/2000/svg" xmlns:xlink="http://www.w3.org/1999/xlink" version="1.1" width="512" height="512" x="0" y="0" viewBox="0 0 32 32" style="enable-background:new 0 0 512 512" xml:space="preserve" class=""><g><path d="m16.927 5.189 12.157 7.064a.712.712 0 0 1 0 1.232l-12.157 7.064a2.402 2.402 0 0 1-2.415 0L2.355 13.485a.712.712 0 0 1 0-1.232l12.157-7.064a2.407 2.407 0 0 1 2.415 0z" fill="#c4ab69" opacity="1" data-original="#000000" class=""/><path d="m16.927 5.189 12.157 7.064a.712.712 0 0 1 0 1.232l-12.157 7.064a2.402 2.402 0 0 1-2.415 0L2.355 13.485a.712.712 0 0 1 0-1.232l12.157-7.064a2.407 2.407 0 0 1 2.415 0z" fill="#c4ab69" opacity="1" data-original="#000000" class=""/><path d="m29.08 13.49-4.13 2.4-8.02 4.66c-.75.43-1.67.43-2.42 0l-8.02-4.66-4.14-2.4a.721.721 0 0 1 0-1.24l12.16-7.06c.75-.43 1.67-.43 2.42 0l12.15 7.06c.48.28.48.96 0 1.24z" fill="#c4ab69" opacity="1" data-original="#000000" class=""/><path d="M17.684 21.847c-.603.345-1.279.526-1.964.526s-1.361-.181-1.956-.521L6.49 17.625v3.755c0 .84.44 1.61 1.17 2.03l5.07 2.93a6.001 6.001 0 0 0 5.97 0l5.08-2.93c.72-.42 1.17-1.19 1.17-2.03v-3.755zM29.3 22.707v-7.61l-1.801 1.046v6.563a1.601 1.601 0 1 0 1.801.001z" fill="#c4ab69" opacity="1" data-original="#000000" class=""/></g></svg>