<svg width="1451" height="541" viewBox="0 0 1451 541" fill="none" xmlns="http://www.w3.org/2000/svg">
<path d="M36.9141 236.018L35.5957 247.297C35.5957 259.113 39.5508 267.17 47.4609 271.467C50.1953 272.932 53.4668 273.664 57.2754 273.664C61.084 273.664 64.502 273.029 67.5293 271.76C70.5566 270.393 73.0469 268.635 75 266.486C79.1016 262.092 81.1523 257.014 81.1523 251.252C81.1523 245.49 79.9805 240.266 77.6367 235.578C75.293 230.891 72.3633 226.203 68.8477 221.516L57.1289 207.16C47.6562 195.832 41.3086 185.529 38.0859 176.252C34.8633 166.877 33.252 158.283 33.252 150.471C33.252 142.658 34.1797 135.285 36.0352 128.352C37.9883 121.32 40.6738 114.68 44.0918 108.43C47.5098 102.082 51.6113 96.2715 56.3965 90.998C61.1816 85.7246 66.5039 81.1836 72.3633 77.375C84.5703 69.1719 96.6797 65.0703 108.691 65.0703C120.703 65.0703 130.078 66.7305 136.816 70.0508C143.555 73.3711 148.975 77.5703 153.076 82.6484C160.693 92.2187 164.502 103.791 164.502 117.365C164.502 129.963 160.938 141.828 153.809 152.961C147.266 163.117 139.941 169.562 131.836 172.297C130.078 173.176 127.637 173.615 124.512 173.615C121.484 173.615 118.896 173.176 116.748 172.297C114.697 171.32 112.891 170.051 111.328 168.488C107.91 165.07 106.201 161.359 106.201 157.355C106.201 154.621 107.031 152.814 108.691 151.936C116.113 147.932 122.559 142.121 128.027 134.504C133.984 126.203 137.109 117.951 137.402 109.748C137.695 101.447 135.693 95.3438 131.396 91.4375C127.197 87.4336 121.582 85.4316 114.551 85.4316C107.52 85.4316 101.172 87.043 95.5078 90.2656C89.8438 93.3906 84.9609 97.6387 80.8594 103.01C72.0703 114.533 67.6758 128.156 67.6758 143.879C67.6758 154.328 71.2891 165.363 78.5156 176.984C81.543 181.965 84.8145 186.896 88.3301 191.779C91.9434 196.564 95.3125 201.496 98.4375 206.574C105.566 218.391 109.131 228.986 109.131 238.361C109.131 247.736 107.422 255.646 104.004 262.092C100.684 268.537 96.2402 274.152 90.6738 278.938C78.6621 289.289 64.9902 294.465 49.6582 294.465C35.2051 294.465 24.0723 290.168 16.2598 281.574C10.0098 274.641 6.88477 267.121 6.88477 259.016C6.88477 250.227 9.375 242.805 14.3555 236.75C18.1641 232.16 21.8262 229.426 25.3418 228.547C33.0566 226.496 36.9141 228.986 36.9141 236.018ZM166.553 283.039C162.451 279.133 159.229 274.201 156.885 268.244C154.541 262.189 153.32 255.061 153.223 246.857C153.125 238.654 154.102 230.354 156.152 221.955C158.301 213.557 161.279 205.451 165.088 197.639C168.994 189.826 173.633 182.502 179.004 175.666C184.473 168.83 190.479 162.873 197.021 157.795C211.279 146.857 226.074 141.389 241.406 141.389C261.523 141.389 275.146 150.227 282.275 167.902C287.354 180.695 287.646 196.174 283.154 214.338C279.053 231.037 271.533 246.369 260.596 260.334C249.756 274.299 236.963 284.211 222.217 290.07C214.795 293 207.471 294.465 200.244 294.465C193.115 294.465 186.719 293.537 181.055 291.682C175.488 289.826 170.654 286.945 166.553 283.039ZM194.531 211.994C191.602 219.221 189.258 226.643 187.5 234.26C185.84 241.877 185.059 249.104 185.156 255.939C185.254 262.678 186.279 268 188.232 271.906C190.283 275.715 193.555 277.619 198.047 277.619C202.539 277.619 206.934 276.105 211.23 273.078C215.625 269.953 219.873 265.852 223.975 260.773C228.076 255.695 231.934 249.836 235.547 243.195C239.16 236.555 242.334 229.621 245.068 222.395C251.025 206.672 253.906 192.707 253.711 180.5C253.711 169.758 251.514 162.922 247.119 159.992C245.361 158.82 242.871 158.234 239.648 158.234C236.523 158.234 232.91 159.699 228.809 162.629C224.707 165.461 220.605 169.318 216.504 174.201C212.402 179.084 208.447 184.797 204.639 191.34C200.83 197.883 197.461 204.768 194.531 211.994ZM417.773 169.074C412.109 169.074 401.758 177.277 386.719 193.684C375.488 206.477 367.334 216.096 362.256 222.541L349.072 239.24C343.408 249.982 338.965 258.918 335.742 266.047L327.832 283.039C325.781 287.238 323.975 290.217 322.412 291.975C320.947 293.635 318.896 294.465 316.26 294.465C313.721 294.465 311.23 293.977 308.789 293C306.445 292.121 304.395 290.949 302.637 289.484C298.926 286.359 297.07 282.941 297.07 279.23C297.07 277.766 298.145 274.885 300.293 270.588L305.859 258.723C307.617 255.207 309.668 250.715 312.012 245.246L320.215 225.178C331.738 196.369 337.5 177.766 337.5 169.367C337.5 164.875 336.035 161.555 333.105 159.406L330.176 157.355C329.199 156.672 328.711 155.5 328.711 153.84C328.711 152.082 329.346 150.422 330.615 148.859C331.982 147.297 333.74 145.93 335.889 144.758C340.283 142.512 344.678 141.389 349.072 141.389C353.564 141.389 357.08 141.877 359.619 142.854C362.158 143.83 364.355 145.148 366.211 146.809C369.922 150.227 371.777 153.791 371.777 157.502C371.777 161.213 371.289 164.973 370.312 168.781C369.336 172.492 368.115 176.301 366.65 180.207C365.186 184.016 363.623 187.727 361.963 191.34C358.057 199.738 355.615 204.914 354.639 206.867C353.76 208.723 353.516 209.406 353.906 208.918C371.777 185.773 382.52 172.102 386.133 167.902C393.652 159.211 399.512 153.254 403.711 150.031C411.426 144.27 418.701 141.389 425.537 141.389C432.471 141.389 437.988 143.537 442.09 147.834C446.191 152.131 448.242 157.795 448.242 164.826C448.242 170.979 446.68 178.205 443.555 186.506C440.43 194.807 438.33 200.617 437.256 203.938L458.789 175.52L470.801 161.164C478.027 153.059 484.375 147.736 489.844 145.197C495.312 142.658 499.756 141.389 503.174 141.389C506.689 141.389 510.107 142.023 513.428 143.293C516.846 144.562 519.727 146.369 522.07 148.713C527.051 153.498 529.541 159.846 529.541 167.756C529.541 175.373 527.783 183.186 524.268 191.193C520.752 199.201 517.676 205.793 515.039 210.969C512.402 216.047 509.863 221.174 507.422 226.35C500.293 241.877 496.729 253.4 496.729 260.92C496.729 266.193 498.877 268.83 503.174 268.83C507.275 268.83 510.986 267.951 514.307 266.193C517.725 264.436 519.922 263.557 520.898 263.557C522.949 263.557 523.975 264.582 523.975 266.633C523.975 275.324 519.531 282.6 510.645 288.459C504.688 292.463 499.219 294.465 494.238 294.465C489.355 294.465 485.4 293.879 482.373 292.707C479.346 291.535 476.611 289.68 474.17 287.141C468.701 281.477 465.967 274.396 465.967 265.9C465.967 257.404 467.041 249.592 469.189 242.463C471.338 235.334 473.877 228.449 476.807 221.809C479.736 215.07 482.666 208.918 485.596 203.352C488.623 197.688 490.918 193.195 492.48 189.875C495.605 183.039 497.168 178.01 497.168 174.787C497.168 170.979 495.166 169.074 491.162 169.074C485.889 169.074 476.416 177.814 462.744 195.295C452.393 208.869 445.215 218.635 441.211 224.592L431.104 239.24C425.439 249.982 421.094 258.918 418.066 266.047L410.596 283.039C408.74 287.238 407.129 290.217 405.762 291.975C404.395 293.635 402.49 294.465 400.049 294.465C397.607 294.465 395.215 294.074 392.871 293.293C390.625 292.512 388.672 291.486 387.012 290.217C383.203 287.385 381.299 284.406 381.299 281.281C381.299 278.059 382.324 273.713 384.375 268.244C386.523 262.678 389.16 256.477 392.285 249.641L412.793 206.281C420.117 190.168 423.779 179.963 423.779 175.666C423.779 171.271 421.777 169.074 417.773 169.074ZM432.275 210.383C432.373 210.383 432.422 210.334 432.422 210.236L432.568 209.943C432.373 210.139 432.275 210.285 432.275 210.383ZM489.99 368C489.99 365.07 491.895 362.922 495.703 361.555C522.852 351.008 550 318.781 577.148 264.875C598.438 222.688 615.137 178.254 627.246 131.574C632.031 113.117 634.424 99.7871 634.424 91.584C634.424 88.5566 633.74 87.043 632.373 87.043C619.482 87.043 603.174 96.9062 583.447 116.633C581.494 118.586 579.297 119.562 576.855 119.562C574.512 119.562 572.168 119.074 569.824 118.098C567.578 117.121 565.527 115.852 563.672 114.289C559.277 110.871 557.08 107.404 557.08 103.889C557.08 100.275 558.203 96.9551 560.449 93.9277C562.695 90.9004 565.723 87.9707 569.531 85.1387C573.34 82.3066 577.686 79.7188 582.568 77.375C587.451 74.9336 592.578 72.7852 597.949 70.9297C609.277 67.1211 617.969 65.2168 624.023 65.2168C630.176 65.2168 635.547 65.6074 640.137 66.3887C644.727 67.0723 649.121 68.293 653.32 70.0508C663.477 74.4453 668.555 80.7441 668.555 88.9473C668.555 103.596 663.965 126.984 654.785 159.113C645.02 193.098 632.227 226.35 616.406 258.869C593.555 304.572 569.434 337.434 544.043 357.453C529.199 369.172 515.137 375.031 501.855 375.031C496.875 375.031 493.262 373.713 491.016 371.076C490.332 370.197 489.99 369.172 489.99 368ZM783.105 254.035C783.105 263.02 786.279 267.512 792.627 267.512C797.021 267.512 800.635 266.828 803.467 265.461C806.396 264.094 808.35 263.41 809.326 263.41C811.377 263.41 812.402 264.484 812.402 266.633C812.402 275.031 808.008 282.258 799.219 288.312C789.941 294.66 780.469 296.223 770.801 293C764.453 290.754 759.766 285.92 756.738 278.498C755.273 274.689 754.541 271.223 754.541 268.098C754.541 263.02 755.029 257.648 756.006 251.984C746.924 270.539 735.645 283.332 722.168 290.363C716.797 293.098 711.084 294.465 705.029 294.465C698.975 294.465 693.701 293.244 689.209 290.803C684.814 288.264 681.055 284.797 677.93 280.402C671.582 271.223 668.701 259.699 669.287 245.832C669.873 228.449 675 211.408 684.668 194.709C693.555 179.084 704.785 166.34 718.359 156.477C731.934 146.418 744.629 141.389 756.445 141.389C768.262 141.389 777.783 146.809 785.01 157.648C791.748 146.809 797.705 141.389 802.881 141.389C808.447 141.389 812.646 142.414 815.479 144.465C820.85 148.371 822.754 151.789 821.191 154.719C796.68 204.914 784.082 236.164 783.398 248.469C783.203 250.227 783.105 252.082 783.105 254.035ZM701.807 254.621C701.807 266.34 705.566 272.199 713.086 272.199C718.848 272.199 725.928 267.316 734.326 257.551C746.631 243.195 757.52 223.859 766.992 199.543C770.02 191.926 772.559 184.309 774.609 176.691C774.219 170.051 771.436 165.168 766.26 162.043C764.502 160.969 761.865 160.432 758.35 160.432C754.932 160.432 750.879 161.701 746.191 164.24C741.602 166.779 737.109 170.246 732.715 174.641C728.418 179.035 724.365 184.26 720.557 190.314C716.846 196.271 713.574 202.766 710.742 209.797C704.785 224.836 701.807 239.777 701.807 254.621ZM911.719 107.111C909.57 109.357 907.129 111.213 904.395 112.678C901.66 114.045 898.779 114.924 895.752 115.314C892.725 115.607 889.844 115.119 887.109 113.85C884.473 112.58 882.178 110.773 880.225 108.43C876.025 103.547 873.926 98.6152 873.926 93.6348C873.926 88.6543 874.707 84.9434 876.27 82.502C877.93 79.9629 879.98 77.9121 882.422 76.3496C887.109 73.3223 891.504 71.8086 895.605 71.8086C899.805 71.8086 903.027 72.1016 905.273 72.6875C907.617 73.2734 909.766 74.25 911.719 75.6172C916.504 78.8398 918.896 82.7949 918.896 87.4824C918.896 92.0723 918.213 95.9297 916.846 99.0547C915.576 102.082 913.867 104.768 911.719 107.111ZM881.689 265.607C884.229 265.607 885.498 267.268 885.498 270.588C885.498 274.982 883.496 279.523 879.492 284.211C873.633 291.047 865.771 294.465 855.908 294.465C844.58 294.465 836.816 289.875 832.617 280.695C831.055 277.473 830.273 273.566 830.273 268.977C830.273 264.387 831.055 259.309 832.617 253.742C834.277 248.078 836.279 242.17 838.623 236.018C841.064 229.768 843.701 223.469 846.533 217.121L854.297 198.664C859.961 184.895 862.793 175.812 862.793 171.418C862.793 167.023 862.305 164.143 861.328 162.775C860.449 161.311 859.473 160.188 858.398 159.406L855.469 157.355C854.492 156.672 854.004 155.5 854.004 153.84C854.004 152.082 854.639 150.422 855.908 148.859C857.275 147.297 859.033 145.93 861.182 144.758C865.576 142.512 870.703 141.389 876.562 141.389C890.918 141.389 898.096 145.148 898.096 152.668C898.096 161.457 895.801 171.516 891.211 182.844C886.621 194.074 882.715 203.156 879.492 210.09L870.703 230.305C864.258 245.148 861.035 255.842 861.035 262.385C861.035 266.682 863.184 268.83 867.48 268.83C871.68 268.83 874.854 268.293 877.002 267.219C879.15 266.145 880.713 265.607 881.689 265.607Z" fill="#C4AB69"/>
<path d="M1239.98 181.537C1217.68 161.152 1219.06 124.929 1234.82 101.082C1251.27 76.1759 1252.44 62.7939 1252.44 62.7939L1252.51 62.2355L1252.59 62.7939C1252.59 62.7939 1253.76 76.1759 1270.21 101.082C1285.97 124.929 1287.35 161.152 1265.05 181.537C1316.06 153.472 1315.54 94.6862 1284.68 56.9841C1254.78 20.4495 1252.65 0.818505 1252.65 0.818505L1252.51 0L1252.38 0.818505C1252.38 0.818505 1250.25 20.4495 1220.35 56.9841C1189.49 94.6854 1188.97 153.472 1239.98 181.537Z" fill="url(#paint0_linear_150_440)"/>
<path d="M1262.82 117.639C1253.24 98.8144 1252.56 88.6994 1252.56 88.6994L1252.51 88.2773L1252.47 88.6994C1252.47 88.6994 1251.79 98.8144 1242.21 117.639C1231.58 138.516 1232.18 171.944 1252.44 184.783C1252.44 184.815 1252.44 184.848 1252.44 184.88C1252.47 184.865 1252.49 184.847 1252.52 184.832C1252.54 184.847 1252.56 184.865 1252.59 184.88C1252.59 184.848 1252.59 184.815 1252.59 184.783C1272.85 171.944 1273.45 138.516 1262.82 117.639Z" fill="url(#paint1_linear_150_440)"/>
<path d="M1329.1 69.7779C1353.31 61.6465 1358.39 53.0759 1358.39 53.0759C1358.39 53.0759 1358.01 62.8131 1340.92 69.7966C1316.8 79.6529 1316.75 89.7484 1314.48 102.586C1311.75 118.04 1320.11 136.914 1292.41 168.598C1333.89 168.79 1364.09 126.107 1362.23 85.0515C1360.75 52.5113 1366.63 37.4043 1366.63 37.4043C1366.63 37.4043 1353.09 51.5565 1340.13 55.311C1296.8 67.8636 1310.96 100.921 1310.96 100.921C1310.96 100.921 1305.35 77.7527 1329.1 69.7779Z" fill="url(#paint2_linear_150_440)"/>
<path d="M1364.96 129.047C1355.95 137.735 1348.29 168.024 1309.36 171.814C1279.31 174.74 1267.53 186.802 1267.53 186.802C1313.73 180.465 1310.04 195.664 1348.68 199.067C1388.14 202.542 1405.12 171.054 1414.78 154.575C1424.44 138.096 1450.58 134.686 1450.58 134.686C1450.58 134.686 1407.38 88.1255 1364.96 129.047Z" fill="url(#paint3_linear_150_440)"/>
<path d="M1317.47 196.435C1309.39 193.462 1302.84 191.367 1289.87 189.88C1284.36 189.249 1264.31 189.457 1264.31 189.457C1264.31 189.457 1276.94 214.884 1316.52 222.284C1356.1 229.684 1389.25 203.926 1389.25 203.926C1389.25 203.926 1366.01 214.316 1317.47 196.435Z" fill="url(#paint4_linear_150_440)"/>
<path d="M1142.8 85.0523C1140.94 126.108 1171.14 168.791 1212.62 168.599C1184.92 136.914 1193.28 118.04 1190.55 102.587C1188.28 89.75 1188.23 79.6537 1164.11 69.7973C1147.03 62.8139 1146.64 53.0767 1146.64 53.0767C1146.64 53.0767 1151.72 61.6473 1175.93 69.7786C1199.68 77.7535 1194.07 100.921 1194.07 100.921C1194.07 100.921 1208.23 67.8644 1164.9 55.311C1151.94 51.5557 1138.41 37.4043 1138.41 37.4043C1138.41 37.4043 1144.28 52.5121 1142.8 85.0523Z" fill="url(#paint5_linear_150_440)"/>
<path d="M1090.25 154.575C1099.91 171.054 1116.89 202.542 1156.35 199.067C1194.99 195.664 1191.31 180.465 1237.5 186.802C1237.5 186.802 1225.72 174.739 1195.67 171.813C1156.74 168.024 1149.08 137.735 1140.07 129.047C1097.65 88.1254 1054.46 134.687 1054.46 134.687C1054.46 134.687 1080.59 138.096 1090.25 154.575Z" fill="url(#paint6_linear_150_440)"/>
<path d="M1240.72 189.457C1240.72 189.457 1220.67 189.249 1215.17 189.88C1202.19 191.367 1195.64 193.461 1187.56 196.435C1139.02 214.316 1115.78 203.926 1115.78 203.926C1115.78 203.926 1148.93 229.684 1188.51 222.284C1228.09 214.883 1240.72 189.457 1240.72 189.457Z" fill="url(#paint7_linear_150_440)"/>
<path d="M1043.82 484.788C1047.76 487.734 1052.94 488.445 1058.21 486.632C1063.28 484.889 1067.15 481.139 1067.64 477.589C1058.82 470.953 1051.68 463.193 1046.24 456.168C1044.84 457.226 1037.88 462.822 1036.99 470.287C1036.53 474.141 1037.78 477.954 1040.68 481.641C1041.7 482.694 1042.74 483.745 1043.82 484.788Z" fill="url(#paint8_linear_150_440)"/>
<path d="M1043.69 452.751C1036.19 442.386 1031.46 432.94 1029.28 428.168C1024.92 436.327 1021.3 444.179 1018.29 451.656C1019.22 452.596 1027.48 460.154 1043.69 452.751Z" fill="url(#paint9_linear_150_440)"/>
<path d="M1053.86 439.739C1045.46 428.633 1039.94 418.258 1037.66 413.652C1035.29 417.472 1033.09 421.239 1031.04 424.946C1034.32 432.531 1055.29 477.512 1095.72 488.451C1097.47 484.789 1099.61 480.999 1102.21 477.241C1080.57 470.39 1064.02 453.168 1053.86 439.739Z" fill="url(#paint10_linear_150_440)"/>
<path d="M1040.95 456.984C1036.98 458.357 1033.49 458.884 1030.48 458.884C1026.7 458.884 1023.69 458.058 1021.4 457.058C1024.21 461.478 1028.54 467.77 1034.21 474.475C1033.96 472.971 1033.93 471.451 1034.11 469.918C1034.78 464.361 1038.16 459.848 1040.95 456.984Z" fill="url(#paint11_linear_150_440)"/>
<path d="M1029.87 485.09C1031.31 483.459 1032.89 480.705 1032.31 476.851L1032.35 476.844C1024.78 467.939 1019.46 459.616 1016.87 455.262C1011.02 470.562 1007.76 484.182 1006.01 495.483C1009.01 492.722 1013.68 489.495 1019 489.594C1023.24 489.695 1027.31 488.004 1029.87 485.09Z" fill="url(#paint12_linear_150_440)"/>
<path d="M1212.49 277.234C1218.66 274.311 1226.31 262.346 1224.77 245.26C1218.94 258.454 1211.66 268.815 1203.88 277.02C1206.08 277.809 1209.57 278.613 1212.49 277.234Z" fill="url(#paint13_linear_150_440)"/>
<path d="M1275.56 258.746C1282.95 247.873 1290.59 238.421 1298.09 232.789C1286.28 235.847 1277.01 242.047 1274.33 249.126C1272.83 253.1 1274.24 256.618 1275.56 258.746Z" fill="url(#paint14_linear_150_440)"/>
<path d="M1314.16 322.612C1312.59 330.112 1315.21 334.51 1317.15 336.619C1317.28 336.04 1317.41 335.466 1317.53 334.896C1319.73 324.967 1321.66 316.204 1328.95 303.688C1323.38 308.113 1315.68 315.367 1314.16 322.612Z" fill="url(#paint15_linear_150_440)"/>
<path d="M1311.32 322.019C1311.76 319.939 1312.62 317.884 1313.76 315.898C1304.33 320.87 1295.34 342.337 1287.94 360.013C1286.85 362.617 1285.78 365.18 1284.72 367.661C1284.24 378.75 1287.88 382.476 1287.92 382.512C1287.92 382.512 1282.55 381.373 1281.89 372.785C1276.48 380.623 1266.5 387.234 1252.11 392.479C1251.88 392.562 1251.65 392.641 1251.43 392.722C1246.63 398.704 1249.04 405.008 1249.15 405.281C1249.15 405.281 1244.12 400.39 1247.09 394.184C1238.38 396.955 1230.9 398.363 1228.45 398.788C1222.99 404.347 1216.29 406.531 1216.29 406.531C1216.62 406.237 1248.69 376.935 1251.73 361.918C1254.32 349.118 1248.38 343.824 1246.82 342.681C1242.32 350.355 1235.66 359.089 1228.13 367.581C1226.42 376.768 1230.2 380.622 1230.37 380.784C1230.37 380.784 1224.53 379.168 1224.79 371.271C1215.01 383.779 1201.87 389.243 1201.87 389.243C1210.55 381.991 1218.53 374.133 1225.39 366.44C1225.4 366.372 1225.55 366.263 1225.55 366.263C1239.19 350.929 1248.37 336.28 1249.74 328.45C1251.65 317.589 1247.44 314.464 1245.84 313.684C1243.79 317.02 1241.86 320.042 1240.07 322.595C1235.15 329.612 1228.47 336.225 1221.75 341.923C1218.54 348.027 1220.08 358.308 1220.09 358.414C1220.09 358.414 1216.15 351.692 1217.5 345.417C1214.04 348.167 1210.67 350.644 1207.64 352.763C1196.75 360.382 1186.25 362.708 1186.25 362.708C1186.5 362.576 1203.71 353.312 1219.49 340.036C1219.52 339.973 1219.56 339.906 1219.6 339.843L1219.67 339.885C1226.44 334.168 1232.93 327.714 1237.69 320.929C1242.22 314.464 1247.76 304.869 1253.63 294.711C1259.86 283.92 1266.71 272.063 1273.82 261.34C1272.06 258.914 1269.41 253.943 1271.62 248.095C1272.6 245.495 1274.36 243.008 1276.71 240.719C1266.32 241.173 1250.1 256.136 1238.96 276.08C1236.92 279.728 1234.8 283.238 1232.63 286.637L1232.7 286.665C1228.98 296.346 1231.91 305.83 1231.94 305.925C1231.94 305.925 1227.27 300.727 1228.12 293.367C1219.68 305.376 1210.32 315.631 1200.14 324.004C1196.53 331.513 1198.64 341.37 1198.67 341.47C1198.67 341.47 1194.2 334.543 1195.92 327.311C1195.13 327.909 1194.34 328.509 1193.54 329.085C1174.66 342.655 1153.47 344.317 1152.01 344.417C1135.42 356.504 1126.25 367.541 1126.25 367.541C1126.29 367.468 1135.97 347.579 1156.52 338.126C1163.49 334.919 1171.89 329.312 1180.63 323.326C1172.71 322.84 1166.81 314.667 1166.81 314.667C1166.92 314.747 1177.18 322.589 1185.45 319.895L1185.46 319.942C1200.07 309.489 1214.19 297.206 1219.91 286.677C1225.39 276.599 1225.51 270.406 1224.34 267.307C1221.73 273.268 1217.82 277.918 1213.73 279.855C1212.15 280.605 1210.48 280.883 1208.88 280.883C1205.94 280.883 1203.23 279.941 1201.67 279.272C1184.47 296.323 1165.28 303.397 1153.97 307.565C1132.55 315.453 1093.64 343.119 1065.58 375.76C1055.27 387.761 1046.66 399.479 1039.48 410.753C1042.59 417.306 1065.6 463.225 1104 474.749C1110.36 466.282 1119.17 458.168 1131.39 452.301C1150.99 442.896 1175.92 437.12 1200.03 431.536C1241.83 421.853 1285.06 411.841 1300.12 382.723C1310.39 362.867 1313.98 350.377 1316.41 339.903C1314.14 338.034 1309.11 332.56 1311.32 322.019Z" fill="url(#paint16_linear_150_440)"/>
<path d="M1071.35 498.213C1074.28 503.61 1080.04 507.219 1088.46 508.952C1088.55 508.965 1088.65 508.977 1088.74 508.989C1089.5 505.496 1090.54 501.653 1091.94 497.617C1092.66 495.544 1093.51 493.364 1094.49 491.119C1085.53 488.629 1077.54 484.542 1070.54 479.68C1069.66 482.374 1067.41 490.937 1071.35 498.213Z" fill="url(#paint17_linear_150_440)"/>
<path d="M1041.64 486.775C1040.86 486.146 1040.11 485.443 1039.42 484.661C1039.24 484.458 1039.07 484.254 1038.9 484.05C1037.6 482.716 1036.37 481.396 1035.2 480.105C1034.87 482.628 1033.81 485.002 1032.05 487.008C1028.93 490.555 1024.04 492.592 1018.93 492.498C1018.86 492.495 1018.79 492.494 1018.72 492.494C1012.48 492.494 1006.97 498.43 1005.31 500.404C1002.99 518.796 1004.21 532.868 1005.45 540.807C1007.12 535.763 1010.65 529.016 1017.93 525.74C1028.37 521.043 1030.13 506.067 1029.52 497.959L1029.22 494.058L1031.99 496.825C1037.21 502.042 1037.72 510.195 1037.65 513.896C1039.08 513.405 1041.53 512.177 1045 509.112C1051.13 503.693 1050.54 496.411 1050.22 494.326C1047.13 491.869 1044.27 489.318 1041.64 486.775Z" fill="url(#paint18_linear_150_440)"/>
<path d="M1230.98 281.879C1232.15 279.773 1233.28 277.644 1234.37 275.5C1235.22 273.759 1236.01 271.981 1236.76 270.163C1237.63 268.024 1238.49 266.336 1239.35 265.047C1239.35 265.039 1239.36 265.03 1239.36 265.021C1257.3 224.279 1255.79 191.881 1255.72 190.521L1250.56 190.796C1251.15 201.958 1248.55 231.452 1234.53 263.184C1225.77 283.015 1213.77 301.326 1198.82 317.77C1209.53 309.391 1222 297.382 1230.98 281.879Z" fill="url(#paint19_linear_150_440)"/>
<path d="M0.6 416.9V404H52.6V416.9H33.7V474H19.4V416.9H0.6ZM83.425 443.2V430.3H134.825V443.2H83.425ZM125.725 404H140.025V474H125.725V404ZM78.725 404H93.025V474H78.725V404ZM182.792 458.1L184.492 446.8H218.092L219.792 458.1H182.792ZM201.092 426.7L190.592 450.8L190.892 454L181.692 474H165.592L201.092 399.9L236.592 474H220.392L211.392 454.6L211.592 451L201.092 426.7ZM262.186 404H276.686V474H262.186V404ZM373.156 434.7L368.656 474H353.756L364.156 400.5L393.456 445.7L422.756 400.5L433.156 474H418.256L413.756 434.7L393.456 467.5L373.156 434.7ZM472.077 458.1L473.777 446.8H507.377L509.077 458.1H472.077ZM490.377 426.7L479.877 450.8L480.177 454L470.977 474H454.877L490.377 399.9L525.877 474H509.677L500.677 454.6L500.877 451L490.377 426.7ZM557.571 450.5C559.038 453.1 560.638 455.367 562.371 457.3C564.171 459.233 566.138 460.733 568.271 461.8C570.404 462.867 572.704 463.4 575.171 463.4C578.038 463.4 580.371 462.667 582.171 461.2C583.971 459.733 584.871 457.733 584.871 455.2C584.871 453 584.304 451.233 583.171 449.9C582.104 448.567 580.471 447.4 578.271 446.4C576.138 445.333 573.504 444.2 570.371 443C568.704 442.4 566.771 441.6 564.571 440.6C562.438 439.533 560.404 438.2 558.471 436.6C556.538 434.933 554.938 432.933 553.671 430.6C552.404 428.2 551.771 425.333 551.771 422C551.771 418 552.771 414.567 554.771 411.7C556.838 408.767 559.604 406.533 563.071 405C566.604 403.4 570.538 402.6 574.871 402.6C579.338 402.6 583.171 403.367 586.371 404.9C589.638 406.367 592.338 408.267 594.471 410.6C596.671 412.867 598.371 415.233 599.571 417.7L588.371 423.9C587.438 422.233 586.304 420.733 584.971 419.4C583.704 418 582.238 416.9 580.571 416.1C578.904 415.233 577.004 414.8 574.871 414.8C572.071 414.8 569.971 415.467 568.571 416.8C567.171 418.067 566.471 419.567 566.471 421.3C566.471 423.033 567.038 424.567 568.171 425.9C569.304 427.167 571.038 428.4 573.371 429.6C575.704 430.733 578.638 431.9 582.171 433.1C584.438 433.9 586.604 434.9 588.671 436.1C590.804 437.3 592.704 438.767 594.371 440.5C596.104 442.167 597.438 444.167 598.371 446.5C599.371 448.767 599.871 451.4 599.871 454.4C599.871 457.8 599.204 460.833 597.871 463.5C596.538 466.167 594.704 468.433 592.371 470.3C590.038 472.1 587.404 473.467 584.471 474.4C581.604 475.4 578.571 475.9 575.371 475.9C571.104 475.9 567.104 475.1 563.371 473.5C559.704 471.833 556.504 469.6 553.771 466.8C551.038 464 548.904 460.967 547.371 457.7L557.571 450.5ZM635.63 450.5C637.096 453.1 638.696 455.367 640.43 457.3C642.23 459.233 644.196 460.733 646.33 461.8C648.463 462.867 650.763 463.4 653.23 463.4C656.096 463.4 658.43 462.667 660.23 461.2C662.03 459.733 662.93 457.733 662.93 455.2C662.93 453 662.363 451.233 661.23 449.9C660.163 448.567 658.53 447.4 656.33 446.4C654.196 445.333 651.563 444.2 648.43 443C646.763 442.4 644.83 441.6 642.63 440.6C640.496 439.533 638.463 438.2 636.53 436.6C634.596 434.933 632.996 432.933 631.73 430.6C630.463 428.2 629.83 425.333 629.83 422C629.83 418 630.83 414.567 632.83 411.7C634.896 408.767 637.663 406.533 641.13 405C644.663 403.4 648.596 402.6 652.93 402.6C657.396 402.6 661.23 403.367 664.43 404.9C667.696 406.367 670.396 408.267 672.53 410.6C674.73 412.867 676.43 415.233 677.63 417.7L666.43 423.9C665.496 422.233 664.363 420.733 663.03 419.4C661.763 418 660.296 416.9 658.63 416.1C656.963 415.233 655.063 414.8 652.93 414.8C650.13 414.8 648.03 415.467 646.63 416.8C645.23 418.067 644.53 419.567 644.53 421.3C644.53 423.033 645.096 424.567 646.23 425.9C647.363 427.167 649.096 428.4 651.43 429.6C653.763 430.733 656.696 431.9 660.23 433.1C662.496 433.9 664.663 434.9 666.73 436.1C668.863 437.3 670.763 438.767 672.43 440.5C674.163 442.167 675.496 444.167 676.43 446.5C677.43 448.767 677.93 451.4 677.93 454.4C677.93 457.8 677.263 460.833 675.93 463.5C674.596 466.167 672.763 468.433 670.43 470.3C668.096 472.1 665.463 473.467 662.53 474.4C659.663 475.4 656.63 475.9 653.43 475.9C649.163 475.9 645.163 475.1 641.43 473.5C637.763 471.833 634.563 469.6 631.83 466.8C629.096 464 626.963 460.967 625.43 457.7L635.63 450.5ZM717.288 458.1L718.988 446.8H752.588L754.288 458.1H717.288ZM735.588 426.7L725.088 450.8L725.388 454L716.188 474H700.088L735.588 399.9L771.088 474H754.888L745.888 454.6L746.088 451L735.588 426.7ZM827.655 448V436.6H862.155C862.355 441.933 861.721 446.967 860.255 451.7C858.855 456.433 856.621 460.633 853.555 464.3C850.555 467.9 846.821 470.733 842.355 472.8C837.888 474.867 832.788 475.9 827.055 475.9C821.655 475.9 816.655 475 812.055 473.2C807.521 471.4 803.555 468.867 800.155 465.6C796.821 462.333 794.221 458.433 792.355 453.9C790.555 449.367 789.655 444.4 789.655 439C789.655 433.6 790.588 428.667 792.455 424.2C794.388 419.667 797.055 415.8 800.455 412.6C803.855 409.4 807.855 406.933 812.455 405.2C817.055 403.467 822.055 402.6 827.455 402.6C832.255 402.6 836.555 403.267 840.355 404.6C844.221 405.933 847.621 407.8 850.555 410.2C853.555 412.533 856.121 415.333 858.255 418.6L846.055 425.7C844.321 422.633 841.888 420.167 838.755 418.3C835.688 416.367 831.921 415.4 827.455 415.4C823.255 415.4 819.421 416.367 815.955 418.3C812.488 420.167 809.721 422.867 807.655 426.4C805.655 429.933 804.655 434.133 804.655 439C804.655 443.8 805.655 448.033 807.655 451.7C809.655 455.3 812.355 458.1 815.755 460.1C819.221 462.1 823.121 463.1 827.455 463.1C830.321 463.1 832.888 462.733 835.155 462C837.421 461.2 839.355 460.1 840.955 458.7C842.621 457.3 844.021 455.7 845.155 453.9C846.288 452.1 847.155 450.133 847.755 448H827.655ZM901.03 474V461.9H936.33V474H901.03ZM901.03 416.1V404H936.33V416.1H901.03ZM901.03 442.8V430.9H934.33V442.8H901.03ZM891.83 404H905.63V474H891.83V404Z" fill="#C4AB69"/>
<defs>
<linearGradient id="paint0_linear_150_440" x1="1359.96" y1="-103.2" x2="1073.72" y2="474.099" gradientUnits="userSpaceOnUse">
<stop offset="1" stop-color="#C4AB69"/>
</linearGradient>
<linearGradient id="paint1_linear_150_440" x1="1371.25" y1="-97.6045" x2="1085.01" y2="479.696" gradientUnits="userSpaceOnUse">
<stop stop-color="#C4AB69"/>
</linearGradient>
<linearGradient id="paint2_linear_150_440" x1="1419.27" y1="-73.7888" x2="1133.02" y2="503.511" gradientUnits="userSpaceOnUse">
<stop stop-color="#C4AB69"/>
</linearGradient>
<linearGradient id="paint3_linear_150_440" x1="1464.28" y1="-51.4773" x2="1178.03" y2="525.823" gradientUnits="userSpaceOnUse">
<stop stop-color="#C4AB69"/>
</linearGradient>
<linearGradient id="paint4_linear_150_440" x1="1452.68" y1="-57.2295" x2="1166.44" y2="520.068" gradientUnits="userSpaceOnUse">
<stop stop-color="#C4AB69"/>
</linearGradient>
<linearGradient id="paint5_linear_150_440" x1="1293.97" y1="-135.914" x2="1007.73" y2="441.387" gradientUnits="userSpaceOnUse">
<stop offset="1" stop-color="#C4AB69"/>
</linearGradient>
<linearGradient id="paint6_linear_150_440" x1="1293.25" y1="-136.277" x2="1007.01" y2="441.023" gradientUnits="userSpaceOnUse">
<stop offset="1" stop-color="#C4AB69"/>
</linearGradient>
<linearGradient id="paint7_linear_150_440" x1="1333.46" y1="-116.343" x2="1047.22" y2="460.956" gradientUnits="userSpaceOnUse">
<stop offset="1" stop-color="#C4AB69"/>
</linearGradient>
<linearGradient id="paint8_linear_150_440" x1="1342.48" y1="-111.859" x2="1056.24" y2="465.44" gradientUnits="userSpaceOnUse">
<stop offset="1" stop-color="#C4AB69"/>
</linearGradient>
<linearGradient id="paint9_linear_150_440" x1="1316.64" y1="-124.681" x2="1030.39" y2="452.619" gradientUnits="userSpaceOnUse">
<stop stop-color="#C4AB69"/>
</linearGradient>
<linearGradient id="paint10_linear_150_440" x1="1345.11" y1="-110.564" x2="1058.86" y2="466.737" gradientUnits="userSpaceOnUse">
<stop stop-color="#C4AB69"/>
</linearGradient>
<linearGradient id="paint11_linear_150_440" x1="1319.79" y1="-123.119" x2="1033.55" y2="454.182" gradientUnits="userSpaceOnUse">
<stop offset="1" stop-color="#C4AB69"/>
</linearGradient>
<linearGradient id="paint12_linear_150_440" x1="1318.15" y1="-123.929" x2="1031.91" y2="453.369" gradientUnits="userSpaceOnUse">
<stop offset="1" stop-color="#C4AB69"/>
</linearGradient>
<linearGradient id="paint13_linear_150_440" x1="1391.01" y1="-87.8059" x2="1104.76" y2="489.493" gradientUnits="userSpaceOnUse">
<stop offset="1" stop-color="#C4AB69"/>
</linearGradient>
<linearGradient id="paint14_linear_150_440" x1="1437.71" y1="-64.6477" x2="1151.46" y2="512.65" gradientUnits="userSpaceOnUse">
<stop offset="1" stop-color="#C4AB69"/>
</linearGradient>
<linearGradient id="paint15_linear_150_440" x1="1496.43" y1="-35.5373" x2="1210.19" y2="541.762" gradientUnits="userSpaceOnUse">
<stop offset="1" stop-color="#C4AB69"/>
</linearGradient>
<linearGradient id="paint16_linear_150_440" x1="1406.31" y1="-80.2186" x2="1120.07" y2="497.082" gradientUnits="userSpaceOnUse">
<stop stop-color="#C4AB69"/>
<stop stop-color="#C4AB69"/>
<stop stop-color="#C4AB69"/>
<stop stop-color="#C4AB69"/>
<stop stop-color="#C4AB69"/>
<stop offset="0.0001" stop-color="#C4AB69"/>
</linearGradient>
<linearGradient id="paint17_linear_150_440" x1="1372.77" y1="-96.8503" x2="1086.52" y2="480.45" gradientUnits="userSpaceOnUse">
<stop offset="1" stop-color="#C4AB69"/>
</linearGradient>
<linearGradient id="paint18_linear_150_440" x1="1333.72" y1="-116.213" x2="1047.47" y2="461.087" gradientUnits="userSpaceOnUse">
<stop stop-color="#C4AB69"/>
</linearGradient>
<linearGradient id="paint19_linear_150_440" x1="1399.51" y1="-83.5857" x2="1113.27" y2="493.714" gradientUnits="userSpaceOnUse">
<stop stop-color="#C4AB69"/>
</linearGradient>
</defs>
</svg>
