<svg width="1301" height="376" viewBox="0 0 1301 376" fill="none" xmlns="http://www.w3.org/2000/svg">
<path d="M36.9141 236.018L35.5957 247.297C35.5957 259.113 39.5508 267.17 47.4609 271.467C50.1953 272.932 53.4668 273.664 57.2754 273.664C61.084 273.664 64.502 273.029 67.5293 271.76C70.5566 270.393 73.0469 268.635 75 266.486C79.1016 262.092 81.1523 257.014 81.1523 251.252C81.1523 245.49 79.9805 240.266 77.6367 235.578C75.293 230.891 72.3633 226.203 68.8477 221.516L57.1289 207.16C47.6562 195.832 41.3086 185.529 38.0859 176.252C34.8633 166.877 33.252 158.283 33.252 150.471C33.252 142.658 34.1797 135.285 36.0352 128.352C37.9883 121.32 40.6738 114.68 44.0918 108.43C47.5098 102.082 51.6113 96.2715 56.3965 90.998C61.1816 85.7246 66.5039 81.1836 72.3633 77.375C84.5703 69.1719 96.6797 65.0703 108.691 65.0703C120.703 65.0703 130.078 66.7305 136.816 70.0508C143.555 73.3711 148.975 77.5703 153.076 82.6484C160.693 92.2187 164.502 103.791 164.502 117.365C164.502 129.963 160.938 141.828 153.809 152.961C147.266 163.117 139.941 169.562 131.836 172.297C130.078 173.176 127.637 173.615 124.512 173.615C121.484 173.615 118.896 173.176 116.748 172.297C114.697 171.32 112.891 170.051 111.328 168.488C107.91 165.07 106.201 161.359 106.201 157.355C106.201 154.621 107.031 152.814 108.691 151.936C116.113 147.932 122.559 142.121 128.027 134.504C133.984 126.203 137.109 117.951 137.402 109.748C137.695 101.447 135.693 95.3438 131.396 91.4375C127.197 87.4336 121.582 85.4316 114.551 85.4316C107.52 85.4316 101.172 87.043 95.5078 90.2656C89.8438 93.3906 84.9609 97.6387 80.8594 103.01C72.0703 114.533 67.6758 128.156 67.6758 143.879C67.6758 154.328 71.2891 165.363 78.5156 176.984C81.543 181.965 84.8145 186.896 88.3301 191.779C91.9434 196.564 95.3125 201.496 98.4375 206.574C105.566 218.391 109.131 228.986 109.131 238.361C109.131 247.736 107.422 255.646 104.004 262.092C100.684 268.537 96.2402 274.152 90.6738 278.938C78.6621 289.289 64.9902 294.465 49.6582 294.465C35.2051 294.465 24.0723 290.168 16.2598 281.574C10.0098 274.641 6.88477 267.121 6.88477 259.016C6.88477 250.227 9.375 242.805 14.3555 236.75C18.1641 232.16 21.8262 229.426 25.3418 228.547C33.0566 226.496 36.9141 228.986 36.9141 236.018ZM166.553 283.039C162.451 279.133 159.229 274.201 156.885 268.244C154.541 262.189 153.32 255.061 153.223 246.857C153.125 238.654 154.102 230.354 156.152 221.955C158.301 213.557 161.279 205.451 165.088 197.639C168.994 189.826 173.633 182.502 179.004 175.666C184.473 168.83 190.479 162.873 197.021 157.795C211.279 146.857 226.074 141.389 241.406 141.389C261.523 141.389 275.146 150.227 282.275 167.902C287.354 180.695 287.646 196.174 283.154 214.338C279.053 231.037 271.533 246.369 260.596 260.334C249.756 274.299 236.963 284.211 222.217 290.07C214.795 293 207.471 294.465 200.244 294.465C193.115 294.465 186.719 293.537 181.055 291.682C175.488 289.826 170.654 286.945 166.553 283.039ZM194.531 211.994C191.602 219.221 189.258 226.643 187.5 234.26C185.84 241.877 185.059 249.104 185.156 255.939C185.254 262.678 186.279 268 188.232 271.906C190.283 275.715 193.555 277.619 198.047 277.619C202.539 277.619 206.934 276.105 211.23 273.078C215.625 269.953 219.873 265.852 223.975 260.773C228.076 255.695 231.934 249.836 235.547 243.195C239.16 236.555 242.334 229.621 245.068 222.395C251.025 206.672 253.906 192.707 253.711 180.5C253.711 169.758 251.514 162.922 247.119 159.992C245.361 158.82 242.871 158.234 239.648 158.234C236.523 158.234 232.91 159.699 228.809 162.629C224.707 165.461 220.605 169.318 216.504 174.201C212.402 179.084 208.447 184.797 204.639 191.34C200.83 197.883 197.461 204.768 194.531 211.994ZM417.773 169.074C412.109 169.074 401.758 177.277 386.719 193.684C375.488 206.477 367.334 216.096 362.256 222.541L349.072 239.24C343.408 249.982 338.965 258.918 335.742 266.047L327.832 283.039C325.781 287.238 323.975 290.217 322.412 291.975C320.947 293.635 318.896 294.465 316.26 294.465C313.721 294.465 311.23 293.977 308.789 293C306.445 292.121 304.395 290.949 302.637 289.484C298.926 286.359 297.07 282.941 297.07 279.23C297.07 277.766 298.145 274.885 300.293 270.588L305.859 258.723C307.617 255.207 309.668 250.715 312.012 245.246L320.215 225.178C331.738 196.369 337.5 177.766 337.5 169.367C337.5 164.875 336.035 161.555 333.105 159.406L330.176 157.355C329.199 156.672 328.711 155.5 328.711 153.84C328.711 152.082 329.346 150.422 330.615 148.859C331.982 147.297 333.74 145.93 335.889 144.758C340.283 142.512 344.678 141.389 349.072 141.389C353.564 141.389 357.08 141.877 359.619 142.854C362.158 143.83 364.355 145.148 366.211 146.809C369.922 150.227 371.777 153.791 371.777 157.502C371.777 161.213 371.289 164.973 370.312 168.781C369.336 172.492 368.115 176.301 366.65 180.207C365.186 184.016 363.623 187.727 361.963 191.34C358.057 199.738 355.615 204.914 354.639 206.867C353.76 208.723 353.516 209.406 353.906 208.918C371.777 185.773 382.52 172.102 386.133 167.902C393.652 159.211 399.512 153.254 403.711 150.031C411.426 144.27 418.701 141.389 425.537 141.389C432.471 141.389 437.988 143.537 442.09 147.834C446.191 152.131 448.242 157.795 448.242 164.826C448.242 170.979 446.68 178.205 443.555 186.506C440.43 194.807 438.33 200.617 437.256 203.938L458.789 175.52L470.801 161.164C478.027 153.059 484.375 147.736 489.844 145.197C495.312 142.658 499.756 141.389 503.174 141.389C506.689 141.389 510.107 142.023 513.428 143.293C516.846 144.562 519.727 146.369 522.07 148.713C527.051 153.498 529.541 159.846 529.541 167.756C529.541 175.373 527.783 183.186 524.268 191.193C520.752 199.201 517.676 205.793 515.039 210.969C512.402 216.047 509.863 221.174 507.422 226.35C500.293 241.877 496.729 253.4 496.729 260.92C496.729 266.193 498.877 268.83 503.174 268.83C507.275 268.83 510.986 267.951 514.307 266.193C517.725 264.436 519.922 263.557 520.898 263.557C522.949 263.557 523.975 264.582 523.975 266.633C523.975 275.324 519.531 282.6 510.645 288.459C504.688 292.463 499.219 294.465 494.238 294.465C489.355 294.465 485.4 293.879 482.373 292.707C479.346 291.535 476.611 289.68 474.17 287.141C468.701 281.477 465.967 274.396 465.967 265.9C465.967 257.404 467.041 249.592 469.189 242.463C471.338 235.334 473.877 228.449 476.807 221.809C479.736 215.07 482.666 208.918 485.596 203.352C488.623 197.688 490.918 193.195 492.48 189.875C495.605 183.039 497.168 178.01 497.168 174.787C497.168 170.979 495.166 169.074 491.162 169.074C485.889 169.074 476.416 177.814 462.744 195.295C452.393 208.869 445.215 218.635 441.211 224.592L431.104 239.24C425.439 249.982 421.094 258.918 418.066 266.047L410.596 283.039C408.74 287.238 407.129 290.217 405.762 291.975C404.395 293.635 402.49 294.465 400.049 294.465C397.607 294.465 395.215 294.074 392.871 293.293C390.625 292.512 388.672 291.486 387.012 290.217C383.203 287.385 381.299 284.406 381.299 281.281C381.299 278.059 382.324 273.713 384.375 268.244C386.523 262.678 389.16 256.477 392.285 249.641L412.793 206.281C420.117 190.168 423.779 179.963 423.779 175.666C423.779 171.271 421.777 169.074 417.773 169.074ZM432.275 210.383C432.373 210.383 432.422 210.334 432.422 210.236L432.568 209.943C432.373 210.139 432.275 210.285 432.275 210.383ZM489.99 368C489.99 365.07 491.895 362.922 495.703 361.555C522.852 351.008 550 318.781 577.148 264.875C598.438 222.688 615.137 178.254 627.246 131.574C632.031 113.117 634.424 99.7871 634.424 91.584C634.424 88.5566 633.74 87.043 632.373 87.043C619.482 87.043 603.174 96.9062 583.447 116.633C581.494 118.586 579.297 119.562 576.855 119.562C574.512 119.562 572.168 119.074 569.824 118.098C567.578 117.121 565.527 115.852 563.672 114.289C559.277 110.871 557.08 107.404 557.08 103.889C557.08 100.275 558.203 96.9551 560.449 93.9277C562.695 90.9004 565.723 87.9707 569.531 85.1387C573.34 82.3066 577.686 79.7188 582.568 77.375C587.451 74.9336 592.578 72.7852 597.949 70.9297C609.277 67.1211 617.969 65.2168 624.023 65.2168C630.176 65.2168 635.547 65.6074 640.137 66.3887C644.727 67.0723 649.121 68.293 653.32 70.0508C663.477 74.4453 668.555 80.7441 668.555 88.9473C668.555 103.596 663.965 126.984 654.785 159.113C645.02 193.098 632.227 226.35 616.406 258.869C593.555 304.572 569.434 337.434 544.043 357.453C529.199 369.172 515.137 375.031 501.855 375.031C496.875 375.031 493.262 373.713 491.016 371.076C490.332 370.197 489.99 369.172 489.99 368ZM783.105 254.035C783.105 263.02 786.279 267.512 792.627 267.512C797.021 267.512 800.635 266.828 803.467 265.461C806.396 264.094 808.35 263.41 809.326 263.41C811.377 263.41 812.402 264.484 812.402 266.633C812.402 275.031 808.008 282.258 799.219 288.312C789.941 294.66 780.469 296.223 770.801 293C764.453 290.754 759.766 285.92 756.738 278.498C755.273 274.689 754.541 271.223 754.541 268.098C754.541 263.02 755.029 257.648 756.006 251.984C746.924 270.539 735.645 283.332 722.168 290.363C716.797 293.098 711.084 294.465 705.029 294.465C698.975 294.465 693.701 293.244 689.209 290.803C684.814 288.264 681.055 284.797 677.93 280.402C671.582 271.223 668.701 259.699 669.287 245.832C669.873 228.449 675 211.408 684.668 194.709C693.555 179.084 704.785 166.34 718.359 156.477C731.934 146.418 744.629 141.389 756.445 141.389C768.262 141.389 777.783 146.809 785.01 157.648C791.748 146.809 797.705 141.389 802.881 141.389C808.447 141.389 812.646 142.414 815.479 144.465C820.85 148.371 822.754 151.789 821.191 154.719C796.68 204.914 784.082 236.164 783.398 248.469C783.203 250.227 783.105 252.082 783.105 254.035ZM701.807 254.621C701.807 266.34 705.566 272.199 713.086 272.199C718.848 272.199 725.928 267.316 734.326 257.551C746.631 243.195 757.52 223.859 766.992 199.543C770.02 191.926 772.559 184.309 774.609 176.691C774.219 170.051 771.436 165.168 766.26 162.043C764.502 160.969 761.865 160.432 758.35 160.432C754.932 160.432 750.879 161.701 746.191 164.24C741.602 166.779 737.109 170.246 732.715 174.641C728.418 179.035 724.365 184.26 720.557 190.314C716.846 196.271 713.574 202.766 710.742 209.797C704.785 224.836 701.807 239.777 701.807 254.621ZM911.719 107.111C909.57 109.357 907.129 111.213 904.395 112.678C901.66 114.045 898.779 114.924 895.752 115.314C892.725 115.607 889.844 115.119 887.109 113.85C884.473 112.58 882.178 110.773 880.225 108.43C876.025 103.547 873.926 98.6152 873.926 93.6348C873.926 88.6543 874.707 84.9434 876.27 82.502C877.93 79.9629 879.98 77.9121 882.422 76.3496C887.109 73.3223 891.504 71.8086 895.605 71.8086C899.805 71.8086 903.027 72.1016 905.273 72.6875C907.617 73.2734 909.766 74.25 911.719 75.6172C916.504 78.8398 918.896 82.7949 918.896 87.4824C918.896 92.0723 918.213 95.9297 916.846 99.0547C915.576 102.082 913.867 104.768 911.719 107.111ZM881.689 265.607C884.229 265.607 885.498 267.268 885.498 270.588C885.498 274.982 883.496 279.523 879.492 284.211C873.633 291.047 865.771 294.465 855.908 294.465C844.58 294.465 836.816 289.875 832.617 280.695C831.055 277.473 830.273 273.566 830.273 268.977C830.273 264.387 831.055 259.309 832.617 253.742C834.277 248.078 836.279 242.17 838.623 236.018C841.064 229.768 843.701 223.469 846.533 217.121L854.297 198.664C859.961 184.895 862.793 175.812 862.793 171.418C862.793 167.023 862.305 164.143 861.328 162.775C860.449 161.311 859.473 160.188 858.398 159.406L855.469 157.355C854.492 156.672 854.004 155.5 854.004 153.84C854.004 152.082 854.639 150.422 855.908 148.859C857.275 147.297 859.033 145.93 861.182 144.758C865.576 142.512 870.703 141.389 876.562 141.389C890.918 141.389 898.096 145.148 898.096 152.668C898.096 161.457 895.801 171.516 891.211 182.844C886.621 194.074 882.715 203.156 879.492 210.09L870.703 230.305C864.258 245.148 861.035 255.842 861.035 262.385C861.035 266.682 863.184 268.83 867.48 268.83C871.68 268.83 874.854 268.293 877.002 267.219C879.15 266.145 880.713 265.607 881.689 265.607Z" fill="white"/>
<path d="M1147.27 125.928C1130.98 111.788 1132 86.6604 1143.5 70.118C1155.51 52.8415 1156.36 43.5587 1156.36 43.5587L1156.41 43.1714L1156.47 43.5587C1156.47 43.5587 1157.32 52.8415 1169.33 70.118C1180.84 86.6604 1181.85 111.788 1165.56 125.928C1202.81 106.46 1202.42 65.6816 1179.89 39.5286C1158.07 14.1853 1156.51 0.567778 1156.51 0.567778L1156.41 0L1156.32 0.567778C1156.32 0.567778 1154.76 14.1853 1132.94 39.5286C1110.41 65.6811 1110.02 106.46 1147.27 125.928Z" fill="url(#paint0_linear_150_469)"/>
<path d="M1163.94 81.6016C1156.95 68.5437 1156.45 61.5272 1156.45 61.5272L1156.42 61.2344L1156.39 61.5272C1156.39 61.5272 1155.89 68.5437 1148.89 81.6016C1141.13 96.0835 1141.57 119.272 1156.36 128.178C1156.36 128.2 1156.36 128.223 1156.36 128.246C1156.38 128.235 1156.4 128.223 1156.42 128.212C1156.43 128.223 1156.45 128.235 1156.47 128.246C1156.47 128.223 1156.47 128.2 1156.47 128.178C1171.26 119.272 1171.7 96.0835 1163.94 81.6016Z" fill="url(#paint1_linear_150_469)"/>
<path d="M1212.32 48.3982C1230 42.7577 1233.71 36.8124 1233.71 36.8124C1233.71 36.8124 1233.42 43.5669 1220.95 48.4112C1203.35 55.2483 1203.3 62.2513 1201.65 71.1565C1199.66 81.8762 1205.76 94.9687 1185.54 116.947C1215.82 117.081 1237.87 87.4725 1236.51 58.9932C1235.43 36.4208 1239.72 25.9414 1239.72 25.9414C1239.72 25.9414 1229.84 35.7585 1220.38 38.3629C1188.74 47.0703 1199.08 70.0015 1199.08 70.0015C1199.08 70.0015 1194.99 53.9302 1212.32 48.3982Z" fill="url(#paint2_linear_150_469)"/>
<path d="M1238.5 89.5121C1231.92 95.5389 1226.33 116.55 1197.91 119.178C1175.97 121.208 1167.37 129.576 1167.37 129.576C1201.1 125.18 1198.41 135.723 1226.62 138.084C1255.42 140.494 1267.81 118.652 1274.87 107.22C1281.92 95.789 1301 93.4239 1301 93.4239C1301 93.4239 1269.47 61.1257 1238.5 89.5121Z" fill="url(#paint3_linear_150_469)"/>
<path d="M1203.83 136.262C1197.94 134.2 1193.16 132.746 1183.68 131.715C1179.67 131.277 1165.03 131.421 1165.03 131.421C1165.03 131.421 1174.25 149.06 1203.14 154.193C1232.03 159.326 1256.23 141.458 1256.23 141.458C1256.23 141.458 1239.27 148.666 1203.83 136.262Z" fill="url(#paint4_linear_150_469)"/>
<path d="M1076.33 58.9937C1074.97 87.473 1097.02 117.081 1127.29 116.948C1107.07 94.9692 1113.17 81.8768 1111.18 71.157C1109.53 62.2524 1109.49 55.2489 1091.88 48.4117C1079.41 43.5675 1079.13 36.813 1079.13 36.813C1079.13 36.813 1082.83 42.7582 1100.51 48.3987C1117.85 53.9307 1113.75 70.0015 1113.75 70.0015C1113.75 70.0015 1124.09 47.0709 1092.46 38.3629C1082.99 35.7579 1073.12 25.9414 1073.12 25.9414C1073.12 25.9414 1077.4 36.4213 1076.33 58.9937Z" fill="url(#paint5_linear_150_469)"/>
<path d="M1037.97 107.22C1045.02 118.651 1057.41 140.494 1086.21 138.083C1114.42 135.723 1111.73 125.18 1145.46 129.575C1145.46 129.575 1136.86 121.208 1114.92 119.178C1086.5 116.549 1080.91 95.5388 1074.33 89.512C1043.36 61.1256 1011.83 93.4243 1011.83 93.4243C1011.83 93.4243 1030.91 95.7889 1037.97 107.22Z" fill="url(#paint6_linear_150_469)"/>
<path d="M1147.8 131.421C1147.8 131.421 1133.17 131.277 1129.15 131.715C1119.68 132.746 1114.89 134.199 1109 136.262C1073.56 148.665 1056.6 141.458 1056.6 141.458C1056.6 141.458 1080.8 159.326 1109.69 154.193C1138.59 149.059 1147.8 131.421 1147.8 131.421Z" fill="url(#paint7_linear_150_469)"/>
<path d="M1004.07 336.287C1006.94 338.33 1010.73 338.823 1014.57 337.566C1018.27 336.357 1021.1 333.756 1021.45 331.293C1015.01 326.689 1009.8 321.307 1005.84 316.434C1004.81 317.168 999.734 321.049 999.085 326.227C998.749 328.901 999.657 331.546 1001.77 334.104C1002.52 334.834 1003.28 335.563 1004.07 336.287Z" fill="url(#paint8_linear_150_469)"/>
<path d="M1003.98 314.069C998.495 306.878 995.043 300.326 993.455 297.016C990.27 302.675 987.625 308.122 985.429 313.309C986.112 313.961 992.141 319.204 1003.98 314.069Z" fill="url(#paint9_linear_150_469)"/>
<path d="M1011.4 305.041C1005.26 297.337 1001.24 290.14 999.57 286.945C997.841 289.595 996.235 292.208 994.737 294.779C997.13 300.041 1012.44 331.243 1041.95 338.831C1043.24 336.291 1044.79 333.662 1046.69 331.055C1030.9 326.303 1018.82 314.357 1011.4 305.041Z" fill="url(#paint10_linear_150_469)"/>
<path d="M1001.97 317C999.077 317.952 996.53 318.318 994.331 318.318C991.574 318.318 989.371 317.745 987.699 317.051C989.753 320.117 992.916 324.482 997.055 329.133C996.874 328.09 996.847 327.035 996.982 325.972C997.47 322.117 999.933 318.986 1001.97 317Z" fill="url(#paint11_linear_150_469)"/>
<path d="M993.886 336.496C994.933 335.364 996.09 333.454 995.663 330.781L995.696 330.776C990.168 324.599 986.288 318.825 984.396 315.805C980.127 326.418 977.747 335.866 976.465 343.705C978.66 341.79 982.065 339.552 985.947 339.62C989.043 339.69 992.018 338.517 993.886 336.496Z" fill="url(#paint12_linear_150_469)"/>
<path d="M1127.19 192.312C1131.7 190.285 1137.28 181.985 1136.16 170.133C1131.91 179.285 1126.59 186.473 1120.91 192.164C1122.52 192.712 1125.07 193.269 1127.19 192.312Z" fill="url(#paint13_linear_150_469)"/>
<path d="M1173.24 179.486C1178.63 171.944 1184.21 165.387 1189.69 161.48C1181.07 163.601 1174.3 167.903 1172.34 172.813C1171.25 175.57 1172.28 178.01 1173.24 179.486Z" fill="url(#paint14_linear_150_469)"/>
<path d="M1201.42 223.788C1200.27 228.99 1202.18 232.041 1203.6 233.504C1203.69 233.102 1203.79 232.704 1203.88 232.309C1205.48 225.421 1206.89 219.343 1212.22 210.66C1208.15 213.73 1202.53 218.762 1201.42 223.788Z" fill="url(#paint15_linear_150_469)"/>
<path d="M1199.34 223.373C1199.66 221.93 1200.29 220.504 1201.12 219.127C1194.24 222.576 1187.68 237.467 1182.28 249.728C1181.48 251.535 1180.7 253.312 1179.92 255.033C1179.57 262.726 1182.23 265.31 1182.26 265.336C1182.26 265.336 1178.34 264.545 1177.86 258.588C1173.91 264.025 1166.63 268.611 1156.12 272.249C1155.95 272.307 1155.79 272.362 1155.62 272.418C1152.12 276.567 1153.88 280.94 1153.96 281.13C1153.96 281.13 1150.29 277.737 1152.46 273.432C1146.1 275.354 1140.64 276.331 1138.85 276.625C1134.86 280.482 1129.97 281.997 1129.97 281.997C1130.21 281.793 1153.62 261.466 1155.84 251.05C1157.74 242.171 1153.39 238.498 1152.26 237.706C1148.97 243.029 1144.11 249.087 1138.62 254.978C1137.37 261.351 1140.13 264.024 1140.25 264.137C1140.25 264.137 1135.99 263.015 1136.18 257.537C1129.04 266.214 1119.44 270.004 1119.44 270.004C1125.78 264.974 1131.61 259.523 1136.61 254.186C1136.62 254.139 1136.73 254.064 1136.73 254.064C1146.69 243.427 1153.39 233.265 1154.39 227.834C1155.78 220.299 1152.71 218.132 1151.54 217.591C1150.05 219.905 1148.63 222.001 1147.33 223.772C1143.74 228.639 1138.86 233.227 1133.96 237.18C1131.61 241.414 1132.73 248.545 1132.75 248.619C1132.75 248.619 1129.87 243.956 1130.86 239.603C1128.33 241.511 1125.87 243.229 1123.66 244.699C1115.7 249.984 1108.05 251.598 1108.05 251.598C1108.23 251.506 1120.79 245.08 1132.31 235.871C1132.33 235.827 1132.36 235.781 1132.39 235.737L1132.44 235.766C1137.38 231.8 1142.12 227.323 1145.59 222.616C1148.9 218.132 1152.95 211.476 1157.23 204.43C1161.78 196.944 1166.78 188.719 1171.97 181.281C1170.68 179.598 1168.75 176.15 1170.36 172.094C1171.08 170.29 1172.36 168.564 1174.08 166.977C1166.49 167.292 1154.65 177.671 1146.52 191.506C1145.03 194.037 1143.49 196.471 1141.9 198.829L1141.95 198.848C1139.23 205.564 1141.37 212.143 1141.39 212.208C1141.39 212.208 1137.99 208.603 1138.6 203.497C1132.44 211.828 1125.62 218.942 1118.18 224.75C1115.55 229.958 1117.09 236.796 1117.11 236.866C1117.11 236.866 1113.85 232.06 1115.1 227.044C1114.52 227.458 1113.95 227.874 1113.36 228.274C1099.58 237.687 1084.11 238.84 1083.05 238.91C1070.94 247.294 1064.24 254.95 1064.24 254.95C1064.27 254.899 1071.33 241.103 1086.34 234.546C1091.43 232.321 1097.56 228.431 1103.94 224.279C1098.16 223.942 1093.85 218.273 1093.85 218.273C1093.93 218.329 1101.42 223.768 1107.46 221.9L1107.47 221.932C1118.13 214.681 1128.44 206.16 1132.62 198.857C1136.61 191.866 1136.7 187.57 1135.85 185.42C1133.95 189.555 1131.09 192.781 1128.1 194.125C1126.95 194.645 1125.73 194.837 1124.56 194.837C1122.41 194.837 1120.43 194.184 1119.3 193.72C1106.74 205.548 1092.73 210.455 1084.47 213.346C1068.84 218.818 1040.44 238.009 1019.96 260.652C1012.43 268.977 1006.14 277.105 1000.9 284.925C1003.17 289.471 1019.96 321.324 1048 329.318C1052.64 323.444 1059.08 317.816 1068 313.747C1082.3 307.222 1100.5 303.216 1118.1 299.342C1148.62 292.625 1180.17 285.68 1191.17 265.482C1198.66 251.708 1201.28 243.044 1203.06 235.779C1201.4 234.482 1197.73 230.685 1199.34 223.373Z" fill="url(#paint16_linear_150_469)"/>
<path d="M1024.17 345.594C1026.3 349.338 1030.51 351.841 1036.66 353.044C1036.72 353.053 1036.79 353.061 1036.86 353.07C1037.42 350.646 1038.17 347.98 1039.2 345.181C1039.72 343.743 1040.34 342.231 1041.06 340.674C1034.52 338.946 1028.69 336.111 1023.57 332.738C1022.93 334.607 1021.29 340.547 1024.17 345.594Z" fill="url(#paint17_linear_150_469)"/>
<path d="M1002.48 337.666C1001.9 337.229 1001.36 336.741 1000.86 336.199C1000.73 336.058 1000.6 335.917 1000.48 335.775C999.529 334.85 998.626 333.934 997.777 333.039C997.536 334.789 996.763 336.436 995.477 337.827C993.202 340.288 989.629 341.701 985.9 341.635C985.848 341.634 985.796 341.633 985.744 341.633C981.192 341.633 977.169 345.751 975.958 347.12C974.263 359.878 975.155 369.639 976.055 375.146C977.28 371.647 979.857 366.967 985.17 364.695C992.791 361.437 994.072 351.048 993.628 345.424L993.414 342.718L995.433 344.637C999.241 348.256 999.615 353.911 999.568 356.479C1000.6 356.138 1002.4 355.286 1004.93 353.16C1009.41 349.401 1008.97 344.35 1008.74 342.904C1006.49 341.199 1004.4 339.429 1002.48 337.666Z" fill="url(#paint18_linear_150_469)"/>
<path d="M1140.7 195.533C1141.55 194.072 1142.37 192.595 1143.17 191.108C1143.79 189.9 1144.37 188.667 1144.91 187.406C1145.55 185.922 1146.18 184.751 1146.81 183.857C1146.81 183.851 1146.81 183.845 1146.81 183.839C1159.91 155.577 1158.81 133.103 1158.76 132.16L1154.99 132.351C1155.42 140.093 1153.52 160.553 1143.28 182.565C1136.89 196.321 1128.13 209.023 1117.22 220.429C1125.04 214.617 1134.14 206.287 1140.7 195.533Z" fill="url(#paint19_linear_150_469)"/>
<defs>
<linearGradient id="paint0_linear_150_469" x1="1234.85" y1="-71.5877" x2="1042.49" y2="336.69" gradientUnits="userSpaceOnUse">
<stop offset="1" stop-color="white"/>
</linearGradient>
<linearGradient id="paint1_linear_150_469" x1="1243.09" y1="-67.7076" x2="1050.73" y2="340.571" gradientUnits="userSpaceOnUse">
<stop stop-color="white"/>
</linearGradient>
<linearGradient id="paint2_linear_150_469" x1="1278.15" y1="-51.1907" x2="1085.78" y2="357.087" gradientUnits="userSpaceOnUse">
<stop stop-color="white"/>
</linearGradient>
<linearGradient id="paint3_linear_150_469" x1="1311" y1="-35.7135" x2="1118.64" y2="372.565" gradientUnits="userSpaceOnUse">
<stop stop-color="white"/>
</linearGradient>
<linearGradient id="paint4_linear_150_469" x1="1302.54" y1="-39.6994" x2="1110.18" y2="368.577" gradientUnits="userSpaceOnUse">
<stop stop-color="white"/>
</linearGradient>
<linearGradient id="paint5_linear_150_469" x1="1186.68" y1="-94.2852" x2="994.315" y2="313.993" gradientUnits="userSpaceOnUse">
<stop offset="1" stop-color="white"/>
</linearGradient>
<linearGradient id="paint6_linear_150_469" x1="1186.15" y1="-94.5374" x2="993.79" y2="313.741" gradientUnits="userSpaceOnUse">
<stop offset="1" stop-color="white"/>
</linearGradient>
<linearGradient id="paint7_linear_150_469" x1="1215.51" y1="-80.7054" x2="1023.14" y2="327.572" gradientUnits="userSpaceOnUse">
<stop offset="1" stop-color="white"/>
</linearGradient>
<linearGradient id="paint8_linear_150_469" x1="1222.09" y1="-77.5936" x2="1029.73" y2="330.684" gradientUnits="userSpaceOnUse">
<stop offset="1" stop-color="white"/>
</linearGradient>
<linearGradient id="paint9_linear_150_469" x1="1203.22" y1="-86.4834" x2="1010.86" y2="321.795" gradientUnits="userSpaceOnUse">
<stop stop-color="white"/>
</linearGradient>
<linearGradient id="paint10_linear_150_469" x1="1224.01" y1="-76.6917" x2="1031.64" y2="331.587" gradientUnits="userSpaceOnUse">
<stop stop-color="white"/>
</linearGradient>
<linearGradient id="paint11_linear_150_469" x1="1205.53" y1="-85.4046" x2="1013.16" y2="322.874" gradientUnits="userSpaceOnUse">
<stop offset="1" stop-color="white"/>
</linearGradient>
<linearGradient id="paint12_linear_150_469" x1="1204.33" y1="-85.9669" x2="1011.97" y2="322.31" gradientUnits="userSpaceOnUse">
<stop offset="1" stop-color="white"/>
</linearGradient>
<linearGradient id="paint13_linear_150_469" x1="1257.51" y1="-60.9072" x2="1065.15" y2="347.37" gradientUnits="userSpaceOnUse">
<stop offset="1" stop-color="white"/>
</linearGradient>
<linearGradient id="paint14_linear_150_469" x1="1291.61" y1="-44.8446" x2="1099.24" y2="363.432" gradientUnits="userSpaceOnUse">
<stop offset="1" stop-color="white"/>
</linearGradient>
<linearGradient id="paint15_linear_150_469" x1="1334.47" y1="-24.6523" x2="1142.11" y2="383.626" gradientUnits="userSpaceOnUse">
<stop offset="1" stop-color="white"/>
</linearGradient>
<linearGradient id="paint16_linear_150_469" x1="1268.69" y1="-55.6504" x2="1076.32" y2="352.628" gradientUnits="userSpaceOnUse">
<stop offset="0.0001" stop-color="white"/>
</linearGradient>
<linearGradient id="paint17_linear_150_469" x1="1244.2" y1="-67.1875" x2="1051.84" y2="341.091" gradientUnits="userSpaceOnUse">
<stop offset="1" stop-color="white"/>
</linearGradient>
<linearGradient id="paint18_linear_150_469" x1="1215.69" y1="-80.6136" x2="1023.33" y2="327.665" gradientUnits="userSpaceOnUse">
<stop stop-color="white"/>
</linearGradient>
<linearGradient id="paint19_linear_150_469" x1="1263.73" y1="-57.9818" x2="1071.36" y2="350.296" gradientUnits="userSpaceOnUse">
<stop stop-color="white"/>
</linearGradient>
</defs>
</svg>
