<svg width="1177" height="461" viewBox="0 0 1177 461" fill="none" xmlns="http://www.w3.org/2000/svg">
<path d="M118.389 161.526C119.551 160.692 120.08 159.281 120.994 158.225C124.562 153.755 128.311 149.44 132.084 145.151C140.743 135.546 150.684 127.042 158.082 116.35C171.696 97.7436 179.212 74.7234 178.752 51.6476C178.826 53.5001 179.144 55.334 179.293 57.1804C179.728 68.6686 181.829 80.1506 186.013 90.8742C190.34 102.213 196.668 112.75 204.408 122.088C210.575 129.939 218.122 136.529 224.724 143.989C229.827 149.745 234.944 155.508 239.475 161.731C240.258 149.229 240.178 136.517 237.144 124.289C234.502 112.682 229.56 101.648 222.927 91.7819C215.629 80.7412 206.969 70.6704 199.832 59.5177C193.666 50.0313 188.419 39.8671 184.894 29.0937C181.624 19.7005 179.852 9.85948 178.746 0C177.235 20.4278 169.719 40.153 158.728 57.3355C147.799 74.9097 132.855 90.1219 125.357 109.704C120.005 123.666 117.288 138.692 118.065 153.655C118.097 156.279 118.631 158.896 118.389 161.526Z" fill="#C4AB69"/>
<path d="M286.006 274.518C275.923 276.538 266.343 280.362 256.863 284.247C247.656 287.902 238.064 290.799 228.167 291.732C215.162 293.168 201.517 291.924 189.612 286.205C211.544 292.229 235.18 288.493 255.707 279.367C267.195 274.406 278.124 268.227 289.799 263.676C299.13 260.033 308.318 255.8 316.449 249.882C325.681 243.286 333.675 234.918 339.637 225.252C346.494 213.975 350.174 200.932 351.194 187.821C352.064 175.357 351.225 162.849 351.71 150.373C349.117 157.174 346.587 164.124 342.254 170.061C334.838 180.449 324.033 187.579 314.404 195.711C306.173 202.369 298.956 210.301 293.323 219.271C287.859 228.174 282.513 237.237 275.6 245.114C261.376 262.048 241.943 275.059 220.173 279.746C215.032 280.772 209.766 281.723 204.513 281.375C220.111 279.603 234.378 272.1 247.066 263.204C265.299 250.05 279.914 232.059 289.525 211.774C295.549 198.869 298.974 184.67 298.875 170.397C298.912 164.199 298.589 157.976 299.36 151.809C300.671 139.68 304.638 127.713 311.662 117.674C316.785 110.444 323.748 104.725 331.22 100.062C331.618 100.211 332.022 100.361 332.432 100.503C332.463 100.218 332.525 99.6457 332.556 99.3598C333.246 99.0551 333.924 98.738 334.602 98.3962C323.698 101.194 313.266 105.533 302.648 109.213C294.61 112.116 286.759 115.659 279.697 120.521C268.731 127.807 259.462 137.536 252.387 148.62C249.584 153.176 247.022 158.1 246.469 163.502C245.984 167.754 247.184 171.976 248.968 175.799C253.724 186.298 258.206 197.234 258.939 208.871C260.108 222.249 256.875 236.15 249.104 247.19C241.694 257.939 230.828 265.902 219.066 271.335C209.927 275.587 199.77 277.285 189.73 276.912C195.107 275.351 200.634 274.114 205.7 271.628C218.836 265.305 230.318 255.166 237.374 242.329C242.832 232.612 245.58 221.367 245.076 210.22C244.709 195.878 240.239 181.798 233.016 169.458C227.794 160.083 221.043 151.672 213.819 143.784C207.012 136.448 200.217 129.044 194.523 120.795C187.852 110.792 182.388 99.9194 178.944 88.375C178.279 92.4841 176.395 96.2452 174.822 100.062C169.122 113.546 160.916 125.904 150.957 136.615C142.714 145.468 134.421 154.395 127.98 164.69C121.136 175.463 116.107 187.492 114.105 200.136C112.078 211.525 112.744 223.542 117.008 234.365C125.438 255.744 145.294 272.18 167.841 276.544C164.577 277.178 161.208 276.731 157.926 276.482C147.998 275.581 138.549 271.764 130.007 266.76C121.329 261.426 113.434 254.544 107.82 245.984C99.7198 233.756 97.202 218.326 99.5147 203.966C101.044 193.87 105.066 184.421 109.256 175.189C111.519 170.521 112.464 165.087 111.034 160.027C109.007 153.133 104.849 147.121 100.522 141.483C90.6313 128.515 77.2471 118.314 62.1782 112.116C49.5337 107.012 36.6776 102.418 23.6477 98.3896C33.1716 103.953 42.4839 110.742 48.1908 120.409C55.949 133.302 59.5733 148.582 58.9581 163.589C58.7964 170.204 58.8151 176.856 59.6978 183.433C61.5442 197.072 66.6294 210.089 73.4117 222.013C85.1734 242.229 102.083 259.679 122.622 271.024C131.985 276.321 142.304 279.709 152.847 281.717C136.218 281.132 120.08 275.245 106.036 266.492C94.6724 259.362 84.9871 249.757 76.9614 239.052C70.9064 231.176 66.3372 222.305 60.6802 214.161C55.0415 206.067 47.7744 199.297 40.1593 193.106C31.5743 186.019 22.4668 179.23 16.0016 170.023C11.7804 164.031 9.41216 157.018 6.47768 150.373C7.13662 163.079 6.0797 175.823 7.14911 188.505C8.36742 202.362 12.6507 216.088 20.44 227.676C26.7747 237.119 35.0429 245.232 44.4485 251.597C52.4866 257.248 61.6372 260.953 70.6948 264.621C77.7506 267.499 84.6571 270.726 91.4707 274.139C102.953 279.815 114.876 284.918 127.527 287.305C141.085 289.867 155.265 289.836 168.625 286.168C158.74 290.855 147.656 292.409 136.802 292.229C125.09 292.005 113.695 288.748 102.828 284.576C93.1738 280.797 83.5072 276.874 73.3368 274.667C48.9618 269.122 23.0574 272.212 0 281.512C10.0833 280.58 20.3592 282.451 29.7214 286.237C40.8616 290.644 50.2985 298.179 60.0955 304.887C69.9116 311.75 81.0081 316.99 92.8198 319.253C106.689 322.019 121.043 321.274 134.856 318.55C149.31 315.74 163.074 308.287 172.417 296.78C175.177 293.317 177.801 289.588 178.851 285.217C181.164 291.39 184.968 296.948 189.755 301.48C198.689 310.338 210.388 316.138 222.666 318.663C243.398 322.79 265.828 321.895 285.024 312.402C300.361 305.135 312.383 292.248 328.348 286.144C337.779 282.227 348.111 280.748 358.268 281.456C335.528 272.311 310.065 269.228 286.006 274.518ZM184.95 260.388C182.942 258.815 183.078 255.993 183.122 253.699C183.346 250.292 183.421 246.873 183.613 243.466C183.974 243.292 184.695 242.944 185.056 242.77C187.728 240.631 188.978 237.113 188.984 233.762C188.891 230.312 187.53 227.073 186.038 224.02C183.818 219.575 180.921 215.249 180.436 210.176C179.87 206.34 180.617 202.443 182.09 198.887C177.042 206.359 172.554 214.385 170.309 223.181C168.861 229.565 168.786 237.442 174.139 242.104L174.599 242.533C174.17 246.661 174.698 250.789 174.686 254.917C174.63 256.937 174.164 259.361 172.268 260.468C169.502 261.164 166.772 259.852 164.46 258.454C158.125 254.276 153.991 247.32 152.338 240.003C150.28 231.194 150.727 221.534 154.998 213.433C159.99 203.599 167.773 195.455 172.417 185.415C175.749 178.689 177.856 171.067 176.632 163.533C175.96 158.709 173.828 154.239 171.404 150.074C170.117 147.892 168.246 146.089 167.245 143.746C172.641 147.873 178.509 151.392 183.595 155.936C187.511 159.442 190.414 164.067 191.813 169.14C193.392 174.835 192.752 180.803 193.187 186.627C193.448 191.365 194.48 196.046 196.202 200.466C198.421 206.688 202.4 212.115 204.526 218.376C207.286 225.916 207.012 234.321 204.774 241.955C202.437 249.645 197.364 257.024 189.705 260.139C188.201 260.593 186.404 261.351 184.95 260.388Z" fill="#C4AB69"/>
<path d="M411.153 324.5C411.153 322.059 412.74 320.268 415.914 319.129C438.538 310.34 461.161 283.484 483.785 238.562C501.526 203.406 515.442 166.378 525.533 127.479C529.521 112.098 531.515 100.989 531.515 94.1533C531.515 91.6305 530.945 90.3691 529.806 90.3691C519.063 90.3691 505.473 98.5885 489.034 115.027C487.407 116.655 485.576 117.469 483.541 117.469C481.588 117.469 479.635 117.062 477.682 116.248C475.81 115.434 474.101 114.376 472.555 113.074C468.893 110.226 467.062 107.337 467.062 104.407C467.062 101.396 467.997 98.6292 469.869 96.1064C471.741 93.5837 474.264 91.1423 477.438 88.7822C480.611 86.4222 484.233 84.2656 488.302 82.3125C492.371 80.278 496.643 78.4876 501.119 76.9414C510.559 73.7676 517.802 72.1807 522.848 72.1807C527.975 72.1807 532.451 72.5062 536.275 73.1572C540.1 73.7269 543.762 74.7441 547.262 76.209C555.725 79.8711 559.957 85.1201 559.957 91.9561C559.957 104.163 556.132 123.654 548.482 150.428C540.344 178.748 529.684 206.458 516.5 233.558C497.457 271.644 477.356 299.028 456.197 315.711C443.827 325.477 432.109 330.359 421.041 330.359C416.891 330.359 413.88 329.261 412.008 327.063C411.438 326.331 411.153 325.477 411.153 324.5ZM655.416 229.529C655.416 237.016 658.061 240.76 663.351 240.76C667.013 240.76 670.024 240.19 672.384 239.051C674.825 237.911 676.453 237.342 677.267 237.342C678.976 237.342 679.83 238.237 679.83 240.027C679.83 247.026 676.168 253.048 668.844 258.094C661.113 263.383 653.219 264.686 645.162 262C639.872 260.128 635.966 256.1 633.443 249.915C632.223 246.741 631.612 243.852 631.612 241.248C631.612 237.016 632.019 232.54 632.833 227.82C625.265 243.283 615.865 253.943 604.635 259.803C600.159 262.081 595.398 263.221 590.353 263.221C585.307 263.221 580.912 262.203 577.169 260.169C573.507 258.053 570.374 255.164 567.77 251.502C562.48 243.852 560.079 234.249 560.567 222.693C561.056 208.208 565.328 194.007 573.385 180.091C580.79 167.07 590.149 156.45 601.461 148.23C612.773 139.848 623.352 135.657 633.199 135.657C643.046 135.657 650.981 140.174 657.003 149.207C662.618 140.174 667.582 135.657 671.896 135.657C676.534 135.657 680.034 136.512 682.394 138.221C686.869 141.476 688.456 144.324 687.154 146.766C666.728 188.595 656.23 214.637 655.66 224.891C655.497 226.355 655.416 227.902 655.416 229.529ZM587.667 230.018C587.667 239.783 590.8 244.666 597.066 244.666C601.868 244.666 607.768 240.597 614.767 232.459C625.021 220.496 634.094 204.383 641.988 184.119C644.511 177.771 646.627 171.424 648.336 165.076C648.01 159.542 645.691 155.473 641.378 152.869C639.913 151.974 637.716 151.526 634.786 151.526C631.938 151.526 628.561 152.584 624.654 154.7C620.829 156.816 617.086 159.705 613.424 163.367C609.843 167.029 606.466 171.383 603.292 176.429C600.2 181.393 597.473 186.805 595.113 192.664C590.149 205.197 587.667 217.648 587.667 230.018ZM762.594 107.093C760.803 108.965 758.769 110.511 756.49 111.731C754.212 112.871 751.811 113.603 749.288 113.929C746.765 114.173 744.365 113.766 742.086 112.708C739.889 111.65 737.976 110.145 736.349 108.191C732.849 104.122 731.1 100.013 731.1 95.8623C731.1 91.7119 731.751 88.6195 733.053 86.585C734.436 84.4691 736.145 82.7601 738.18 81.458C742.086 78.9352 745.748 77.6738 749.166 77.6738C752.665 77.6738 755.351 77.918 757.223 78.4062C759.176 78.8945 760.966 79.7083 762.594 80.8477C766.581 83.5332 768.575 86.8291 768.575 90.7354C768.575 94.5602 768.006 97.7747 766.866 100.379C765.808 102.902 764.384 105.14 762.594 107.093ZM737.569 239.173C739.685 239.173 740.743 240.556 740.743 243.323C740.743 246.985 739.075 250.77 735.738 254.676C730.855 260.372 724.304 263.221 716.085 263.221C706.645 263.221 700.175 259.396 696.676 251.746C695.374 249.061 694.723 245.805 694.723 241.98C694.723 238.156 695.374 233.924 696.676 229.285C698.059 224.565 699.728 219.642 701.681 214.515C703.715 209.306 705.912 204.057 708.272 198.768L714.742 183.387C719.462 171.912 721.822 164.344 721.822 160.682C721.822 157.02 721.415 154.619 720.602 153.479C719.869 152.259 719.055 151.323 718.16 150.672L715.719 148.963C714.905 148.393 714.498 147.417 714.498 146.033C714.498 144.568 715.027 143.185 716.085 141.883C717.224 140.581 718.689 139.441 720.479 138.465C724.142 136.593 728.414 135.657 733.297 135.657C745.26 135.657 751.241 138.79 751.241 145.057C751.241 152.381 749.329 160.763 745.504 170.203C741.679 179.562 738.424 187.13 735.738 192.908L728.414 209.754C723.043 222.124 720.357 231.035 720.357 236.487C720.357 240.068 722.148 241.858 725.729 241.858C729.228 241.858 731.873 241.411 733.663 240.516C735.453 239.62 736.756 239.173 737.569 239.173ZM890.157 114.295C890.157 98.1003 879.456 90.0029 858.053 90.0029C844.625 90.0029 831.035 94.0719 817.281 102.21C813.294 104.57 810.16 106.767 807.882 108.802C805.685 110.755 803.569 111.731 801.534 111.731C799.5 111.731 797.547 111.243 795.675 110.267C793.803 109.209 792.135 107.907 790.67 106.36C785.299 100.42 785.868 94.6823 792.379 89.1484C802.145 80.7663 818.339 75.3545 840.963 72.9131C845.52 72.4248 851.298 72.1807 858.297 72.1807C865.296 72.1807 872.66 73.4421 880.392 75.9648C888.204 78.4876 894.755 81.9056 900.045 86.2188C910.624 94.9264 915.914 106.035 915.914 119.544C915.914 135.576 908.59 150.184 893.941 163.367C881.246 174.923 866.231 183.183 848.897 188.147C853.618 192.054 858.053 197.669 862.203 204.993L871.969 222.449C880.514 238.318 888.163 246.945 894.918 248.328C897.278 248.735 899.719 248.654 902.242 248.084C904.765 247.514 906.393 247.27 907.125 247.352C907.939 247.352 908.468 248.003 908.712 249.305C909.037 250.607 908.712 252.234 907.735 254.188C906.759 256.141 905.172 257.972 902.975 259.681C897.848 263.75 892.232 265.54 886.129 265.052C880.025 264.645 875.061 263.424 871.236 261.39C867.493 259.274 864.116 256.629 861.104 253.455C858.175 250.281 855.53 246.741 853.17 242.835C850.891 238.929 848.775 234.941 846.822 230.872L841.329 218.909C839.62 215.003 838.033 211.666 836.568 208.899C835.104 206.051 833.842 203.488 832.784 201.209C831.726 198.849 830.546 196.733 829.244 194.861C826.477 190.63 822.937 187.944 818.624 186.805C801.534 230.75 784.16 255.815 766.5 262C765.035 262.57 763.53 262.854 761.983 262.854C760.519 262.854 759.176 262.57 757.955 262C756.734 261.512 755.717 260.861 754.903 260.047C753.194 258.501 752.34 256.792 752.34 254.92C752.34 253.048 752.95 251.665 754.171 250.77C766.378 241.899 779.928 216.02 794.82 173.133L802.145 152.503C810.527 128.74 817.607 114.091 823.385 108.558C825.419 107.011 827.535 106.238 829.732 106.238C831.93 106.238 833.842 106.604 835.47 107.337C837.097 107.988 838.521 108.842 839.742 109.9C842.509 112.342 843.893 114.824 843.893 117.347C843.893 119.869 843.323 122.148 842.184 124.183C841.126 126.136 839.905 128.903 838.521 132.483C834.534 142.9 831.441 151.242 829.244 157.508L823.019 175.086C840.353 172.807 855.693 166.012 869.039 154.7C883.118 142.819 890.157 129.35 890.157 114.295ZM1018.21 229.529C1018.21 237.016 1020.85 240.76 1026.14 240.76C1029.81 240.76 1032.82 240.19 1035.18 239.051C1037.62 237.911 1039.25 237.342 1040.06 237.342C1041.77 237.342 1042.62 238.237 1042.62 240.027C1042.62 247.026 1038.96 253.048 1031.64 258.094C1023.91 263.383 1016.01 264.686 1007.96 262C1002.67 260.128 998.759 256.1 996.236 249.915C995.016 246.741 994.405 243.852 994.405 241.248C994.405 237.016 994.812 232.54 995.626 227.82C988.058 243.283 978.658 253.943 967.428 259.803C962.952 262.081 958.191 263.221 953.146 263.221C948.1 263.221 943.705 262.203 939.962 260.169C936.3 258.053 933.167 255.164 930.562 251.502C925.273 243.852 922.872 234.249 923.36 222.693C923.849 208.208 928.121 194.007 936.178 180.091C943.583 167.07 952.942 156.45 964.254 148.23C975.566 139.848 986.145 135.657 995.992 135.657C1005.84 135.657 1013.77 140.174 1019.8 149.207C1025.41 140.174 1030.38 135.657 1034.69 135.657C1039.33 135.657 1042.83 136.512 1045.19 138.221C1049.66 141.476 1051.25 144.324 1049.95 146.766C1029.52 188.595 1019.02 214.637 1018.45 224.891C1018.29 226.355 1018.21 227.902 1018.21 229.529ZM950.46 230.018C950.46 239.783 953.593 244.666 959.859 244.666C964.661 244.666 970.561 240.597 977.56 232.459C987.813 220.496 996.887 204.383 1004.78 184.119C1007.3 177.771 1009.42 171.424 1011.13 165.076C1010.8 159.542 1008.48 155.473 1004.17 152.869C1002.71 151.974 1000.51 151.526 997.579 151.526C994.731 151.526 991.354 152.584 987.447 154.7C983.622 156.816 979.879 159.705 976.217 163.367C972.636 167.029 969.259 171.383 966.085 176.429C962.993 181.393 960.266 186.805 957.906 192.664C952.942 205.197 950.46 217.648 950.46 230.018ZM1140.28 263.099C1121.81 263.099 1107.08 245.561 1096.09 210.486C1091.78 218.462 1088.2 225.704 1085.35 232.215L1078.02 248.816C1075.91 253.374 1073.91 256.914 1072.04 259.437C1070.25 261.959 1068.22 263.221 1065.94 263.221C1063.66 263.221 1061.58 262.814 1059.71 262C1057.84 261.268 1056.21 260.291 1054.83 259.07C1051.98 256.466 1050.56 253.618 1050.56 250.525C1050.56 249.305 1051.41 246.904 1053.12 243.323L1058 233.436C1073.22 202.104 1087.02 162.391 1099.39 114.295C1103.94 96.554 1107.24 80.6035 1109.27 66.4434C1110.17 59.6074 1113.51 56.1895 1119.28 56.1895C1122.7 56.1895 1125.55 57.0846 1127.83 58.875C1132.22 62.3743 1134.34 66.1585 1134.18 70.2275C1134.01 74.2152 1133.44 78.7318 1132.47 83.7773C1131.57 88.8229 1130.35 94.3568 1128.8 100.379C1127.26 106.32 1125.51 112.545 1123.56 119.056C1118.27 136.064 1114.32 148.19 1111.71 155.433L1100.24 187.049C1098.78 190.792 1097.64 193.519 1096.82 195.228C1115.7 187.741 1129.86 179.277 1139.3 169.837C1145 164.14 1147.85 158.81 1147.85 153.846C1147.85 151.323 1146.99 149.492 1145.28 148.353C1143.66 147.213 1142.52 146.359 1141.87 145.789C1141.3 145.138 1141.26 144.039 1141.74 142.493C1142.31 140.866 1143.86 139.319 1146.38 137.854C1148.91 136.39 1151.96 135.657 1155.54 135.657C1159.12 135.657 1162.09 135.983 1164.45 136.634C1166.89 137.285 1169.01 138.302 1170.8 139.686C1174.78 142.534 1176.78 146.562 1176.78 151.771C1176.78 156.979 1175.68 161.78 1173.48 166.175C1171.29 170.488 1167.87 174.679 1163.23 178.748C1154.03 186.561 1139.3 194.129 1119.04 201.453C1121.56 212.277 1126.2 221.798 1132.96 230.018C1139.38 237.83 1145.28 241.736 1150.66 241.736C1153.5 241.736 1155.94 241.248 1157.98 240.271L1162.37 238.074C1163.27 237.586 1164.12 237.342 1164.94 237.342C1166.97 237.342 1167.99 238.562 1167.99 241.004C1167.99 243.12 1167.62 244.992 1166.89 246.619C1166.16 248.165 1165.1 249.834 1163.72 251.624C1162.41 253.414 1160.71 255.164 1158.59 256.873C1153.3 261.023 1147.2 263.099 1140.28 263.099Z" fill="#C4AB69"/>
<path d="M23.2 430V370.9H2.7V360H57V370.9H36.6V430H23.2ZM150.668 430V360H164.168V430H150.668ZM106.568 430V360H120.068V430H106.568ZM118.168 399.7V388.8H152.968V399.7H118.168ZM213.255 430L238.855 360H254.155L279.655 430H265.355L246.455 375.4L227.455 430H213.255ZM224.555 414.1L228.155 403.6H263.755L267.255 414.1H224.555ZM328.853 430V360H342.353V430H328.853ZM459.634 430V360H475.734L497.134 403.7L518.334 360H534.434V430H520.934V383L502.434 420.2H491.734L473.134 383V430H459.634ZM583.509 430L609.109 360H624.409L649.909 430H635.609L616.709 375.4L597.709 430H583.509ZM594.809 414.1L598.409 403.6H634.009L637.509 414.1H594.809ZM723.207 431.2C718.14 431.2 713.607 430.333 709.607 428.6C705.674 426.867 702.54 424.333 700.207 421C697.94 417.667 696.774 413.633 696.707 408.9H711.007C711.074 410.967 711.607 412.833 712.607 414.5C713.607 416.167 714.974 417.5 716.707 418.5C718.507 419.433 720.64 419.9 723.107 419.9C725.24 419.9 727.074 419.567 728.607 418.9C730.207 418.167 731.44 417.167 732.307 415.9C733.174 414.633 733.607 413.133 733.607 411.4C733.607 409.4 733.107 407.733 732.107 406.4C731.174 405.067 729.84 403.933 728.107 403C726.44 402.067 724.474 401.233 722.207 400.5C720.007 399.7 717.674 398.867 715.207 398C709.674 396.2 705.44 393.8 702.507 390.8C699.64 387.8 698.207 383.833 698.207 378.9C698.207 374.7 699.207 371.1 701.207 368.1C703.274 365.1 706.107 362.8 709.707 361.2C713.307 359.6 717.407 358.8 722.007 358.8C726.74 358.8 730.874 359.633 734.407 361.3C738.007 362.9 740.84 365.233 742.907 368.3C745.04 371.367 746.14 374.967 746.207 379.1H731.807C731.74 377.567 731.274 376.133 730.407 374.8C729.607 373.4 728.474 372.3 727.007 371.5C725.54 370.633 723.807 370.2 721.807 370.2C720.074 370.133 718.474 370.4 717.007 371C715.607 371.6 714.474 372.5 713.607 373.7C712.807 374.833 712.407 376.267 712.407 378C712.407 379.667 712.807 381.067 713.607 382.2C714.474 383.333 715.64 384.333 717.107 385.2C718.574 386 720.307 386.767 722.307 387.5C724.307 388.167 726.474 388.867 728.807 389.6C732.274 390.8 735.474 392.233 738.407 393.9C741.34 395.5 743.674 397.6 745.407 400.2C747.14 402.8 748.007 406.233 748.007 410.5C748.007 414.167 747.04 417.567 745.107 420.7C743.174 423.833 740.374 426.367 736.707 428.3C733.107 430.233 728.607 431.2 723.207 431.2ZM823.559 431.2C818.492 431.2 813.959 430.333 809.959 428.6C806.025 426.867 802.892 424.333 800.559 421C798.292 417.667 797.125 413.633 797.059 408.9H811.359C811.425 410.967 811.959 412.833 812.959 414.5C813.959 416.167 815.325 417.5 817.059 418.5C818.859 419.433 820.992 419.9 823.459 419.9C825.592 419.9 827.425 419.567 828.959 418.9C830.559 418.167 831.792 417.167 832.659 415.9C833.525 414.633 833.959 413.133 833.959 411.4C833.959 409.4 833.459 407.733 832.459 406.4C831.525 405.067 830.192 403.933 828.459 403C826.792 402.067 824.825 401.233 822.559 400.5C820.359 399.7 818.025 398.867 815.559 398C810.025 396.2 805.792 393.8 802.859 390.8C799.992 387.8 798.559 383.833 798.559 378.9C798.559 374.7 799.559 371.1 801.559 368.1C803.625 365.1 806.459 362.8 810.059 361.2C813.659 359.6 817.759 358.8 822.359 358.8C827.092 358.8 831.225 359.633 834.759 361.3C838.359 362.9 841.192 365.233 843.259 368.3C845.392 371.367 846.492 374.967 846.559 379.1H832.159C832.092 377.567 831.625 376.133 830.759 374.8C829.959 373.4 828.825 372.3 827.359 371.5C825.892 370.633 824.159 370.2 822.159 370.2C820.425 370.133 818.825 370.4 817.359 371C815.959 371.6 814.825 372.5 813.959 373.7C813.159 374.833 812.759 376.267 812.759 378C812.759 379.667 813.159 381.067 813.959 382.2C814.825 383.333 815.992 384.333 817.459 385.2C818.925 386 820.659 386.767 822.659 387.5C824.659 388.167 826.825 388.867 829.159 389.6C832.625 390.8 835.825 392.233 838.759 393.9C841.692 395.5 844.025 397.6 845.759 400.2C847.492 402.8 848.359 406.233 848.359 410.5C848.359 414.167 847.392 417.567 845.459 420.7C843.525 423.833 840.725 426.367 837.059 428.3C833.459 430.233 828.959 431.2 823.559 431.2ZM895.11 430L920.71 360H936.01L961.51 430H947.21L928.31 375.4L909.31 430H895.11ZM906.41 414.1L910.01 403.6H945.61L949.11 414.1H906.41ZM1037.4 431.2C1030.74 431.2 1024.94 429.733 1020 426.8C1015.07 423.8 1011.24 419.633 1008.5 414.3C1005.77 408.9 1004.4 402.633 1004.4 395.5C1004.4 388.3 1005.8 381.967 1008.6 376.5C1011.4 370.967 1015.44 366.633 1020.7 363.5C1025.97 360.367 1032.27 358.8 1039.6 358.8C1047.8 358.8 1054.6 360.767 1060 364.7C1065.47 368.633 1069 374.1 1070.6 381.1H1055.5C1054.5 378.033 1052.64 375.633 1049.9 373.9C1047.24 372.1 1043.77 371.2 1039.5 371.2C1034.97 371.2 1031.1 372.2 1027.9 374.2C1024.7 376.2 1022.27 379 1020.6 382.6C1018.94 386.2 1018.1 390.5 1018.1 395.5C1018.1 400.567 1018.94 404.867 1020.6 408.4C1022.27 411.933 1024.64 414.633 1027.7 416.5C1030.84 418.3 1034.5 419.2 1038.7 419.2C1044.84 419.2 1049.47 417.567 1052.6 414.3C1055.8 410.967 1057.7 406.667 1058.3 401.4H1041.1V391.3H1071.9V430H1059.4L1058.4 421.1C1056.94 423.3 1055.2 425.167 1053.2 426.7C1051.27 428.167 1049 429.267 1046.4 430C1043.8 430.8 1040.8 431.2 1037.4 431.2ZM1124.54 430V360H1170.54V370.9H1138.04V389.2H1167.54V399.7H1138.04V419.1H1170.54V430H1124.54Z" fill="#C4AB69"/>
</svg>
