<svg xmlns="http://www.w3.org/2000/svg" xmlns:xlink="http://www.w3.org/1999/xlink" version="1.1" width="512" height="512" x="0" y="0" viewBox="0 0 66 66" style="enable-background:new 0 0 512 512" xml:space="preserve" class=""><g><path d="M14.266 24.585h.921v9.619h8.892v-9.619h17.832v9.619h8.892v-9.619h.921c2.793 0 5.062-2.279 5.062-5.071a.967.967 0 0 0-.97-.97.973.973 0 0 0-.97.97 3.128 3.128 0 0 1-3.122 3.132H14.266a3.135 3.135 0 0 1-3.122-3.132c0-.533-.436-.97-.97-.97s-.97.436-.97.97c.001 2.792 2.27 5.071 5.062 5.071z" fill="#c4ab69" opacity="1" data-original="#000000" class=""/><path d="M20.045 15.896h2.094v4.809h7.127v-4.809h7.457v4.809h7.127v-4.809h2.113c.533 0 .97-.436.97-.97a.955.955 0 0 0-.407-.795L33.679 1.284a.966.966 0 0 0-1.367 0L19.367 14.238a.952.952 0 0 0-.213 1.057.97.97 0 0 0 .891.601zM32.998 51.553a4.919 4.919 0 0 0-4.913 4.913V65h9.826v-8.534a4.919 4.919 0 0 0-4.913-4.913z" fill="#c4ab69" opacity="1" data-original="#000000" class=""/><path d="M19.82 65h6.326v-8.534c0-3.778 3.074-6.852 6.852-6.852s6.852 3.074 6.852 6.852V65h6.325V36.143H19.82zM4.104 33.021c0-.533-.436-.97-.97-.97s-.97.436-.97.97a5.072 5.072 0 0 0 5.062 5.062h3.19v24.978H1.971a.973.973 0 0 0-.97.97c0 .533.436.97.97.97H17.88V36.143H7.226a3.126 3.126 0 0 1-3.122-3.122zM64.029 63.061h-8.446V38.082h3.18a5.065 5.065 0 0 0 5.062-5.062.973.973 0 0 0-.97-.97.973.973 0 0 0-.97.97 3.12 3.12 0 0 1-3.122 3.122H48.115V65H64.03c.533 0 .97-.436.97-.97a.974.974 0 0 0-.971-.969z" fill="#c4ab69" opacity="1" data-original="#000000" class=""/></g></svg>