<svg xmlns="http://www.w3.org/2000/svg" xmlns:xlink="http://www.w3.org/1999/xlink" version="1.1" width="512" height="512" x="0" y="0" viewBox="0 0 512 512" style="enable-background:new 0 0 512 512" xml:space="preserve" class=""><g><path d="M298.384 72.494c3.089-6.65 4.701-13.902 4.701-21.431C303.085 22.906 280.178 0 252.022 0c-28.157 0-51.063 22.906-51.063 51.063 0 7.528 1.612 14.779 4.703 21.429-25.859 17.313-43.169 48.646-43.169 84.348 0 3.515.171 6.986.498 10.407 46.277-5.546 85.238-21.793 115.899-48.366 17.329-15.018 27.26-29.531 31.567-36.692a90.937 90.937 0 0 0-12.073-9.695zM329.564 107.587c-6.47 9.083-16.148 20.783-29.717 32.747-24.21 21.348-65.939 47.73-129.776 56.199 13.892 34.672 45.395 58.935 81.95 58.935 49.366 0 89.529-44.244 89.529-98.628-.001-17.927-4.368-34.751-11.986-49.253zM227.848 512h78.375v-79.176c-21.177 31.895-47.565 58.594-78.375 79.176zM326.749 265.578h-9.87c-6.318 22.183-30.843 88.295-109.798 147.142v77.109c47.707-30.322 83.007-75.488 105.027-134.496 18.19-48.744 19.98-89.109 19.996-89.51l1.048.039a78.376 78.376 0 0 0-6.403-.284zM361.556 273.846c-1.261 14.397-5.73 49.612-21.021 90.959a355.05 355.05 0 0 1-4.365 11.178V512h67.62V341.901c-.002-29.68-17.202-55.437-42.234-68.055z" fill="#c4ab69" opacity="1" data-original="#000000" class=""/><path d="M185.249 265.578c-42.48 0-77.039 34.238-77.039 76.323V512h68.926V348.299h29.945v26.114c50.285-43.119 70.809-87.38 78.365-108.835H185.249z" fill="#c4ab69" opacity="1" data-original="#000000" class=""/></g></svg>